<svg id="svg" version="1.1" width="400" height="400" xmlns="http://www.w3.org/2000/svg" xmlns:xlink="http://www.w3.org/1999/xlink" style="display: block;"><g id="svgg"><path id="path0" d="M26.305 58.683 C 26.802 58.779,27.522 58.775,27.905 58.675 C 28.287 58.575,27.880 58.496,27.000 58.501 C 26.120 58.505,25.807 58.587,26.305 58.683 M191.107 58.690 C 191.826 58.779,192.906 58.777,193.507 58.686 C 194.108 58.595,193.520 58.522,192.200 58.524 C 190.880 58.526,190.388 58.601,191.107 58.690 M264.700 58.689 C 265.415 58.778,266.585 58.778,267.300 58.689 C 268.015 58.601,267.430 58.528,266.000 58.528 C 264.570 58.528,263.985 58.601,264.700 58.689 M370.900 58.687 C 371.505 58.778,372.495 58.778,373.100 58.687 C 373.705 58.595,373.210 58.520,372.000 58.520 C 370.790 58.520,370.295 58.595,370.900 58.687 M15.283 59.208 C 9.890 59.994,8.711 62.313,8.880 71.800 C 8.915 73.780,9.004 74.500,9.076 73.400 C 9.898 60.951,10.951 59.898,23.400 59.076 C 24.500 59.004,23.600 58.934,21.400 58.922 C 19.200 58.910,16.448 59.039,15.283 59.208 M199.000 59.077 C 205.849 59.686,206.954 60.848,207.617 68.133 L 207.951 71.800 207.803 67.288 C 207.563 59.991,206.466 58.812,200.000 58.899 C 198.448 58.920,198.045 58.992,199.000 59.077 M259.289 59.423 C 258.800 59.765,258.400 60.277,258.400 60.559 C 258.400 60.859,257.443 61.283,256.100 61.578 C 249.184 63.099,246.275 66.220,244.617 73.900 L 244.336 75.200 247.160 75.200 L 249.984 75.200 250.760 73.700 C 251.638 72.004,255.168 68.466,257.050 67.397 C 258.188 66.750,258.318 66.469,258.503 64.243 C 258.785 60.870,259.387 59.739,261.152 59.269 C 262.596 58.884,262.597 58.883,261.389 58.841 C 260.723 58.819,259.778 59.080,259.289 59.423 M379.214 59.219 C 388.635 59.898,390.061 61.321,390.811 70.786 L 391.145 75.000 391.012 69.600 C 390.772 59.865,389.455 58.707,378.800 58.861 L 375.000 58.916 379.214 59.219 M241.923 75.411 C 241.807 75.527,239.669 75.801,237.172 76.020 C 228.012 76.824,226.814 78.004,226.029 87.000 C 225.818 89.420,225.548 92.210,225.430 93.200 C 225.093 96.021,225.906 93.065,226.585 89.000 C 228.149 79.640,230.159 77.685,239.357 76.577 C 241.819 76.281,244.638 75.207,242.967 75.202 C 242.508 75.201,242.039 75.295,241.923 75.411 M8.537 79.800 C 8.539 81.560,8.609 82.230,8.693 81.289 C 8.778 80.349,8.777 78.909,8.691 78.089 C 8.605 77.270,8.536 78.040,8.537 79.800 M207.600 82.962 C 207.600 99.675,204.766 105.225,195.600 106.460 C 190.826 107.103,187.840 108.089,191.600 107.781 C 205.351 106.653,206.239 106.128,207.154 98.597 C 207.685 94.231,208.231 79.600,207.863 79.600 C 207.718 79.600,207.600 81.113,207.600 82.962 M179.300 108.294 C 180.345 108.376,182.055 108.376,183.100 108.294 C 184.145 108.212,183.290 108.144,181.200 108.144 C 179.110 108.144,178.255 108.212,179.300 108.294 M219.100 108.695 C 220.255 108.776,222.145 108.776,223.300 108.695 C 224.455 108.614,223.510 108.548,221.200 108.548 C 218.890 108.548,217.945 108.614,219.100 108.695 M307.077 111.400 C 306.116 120.929,304.161 122.792,294.073 123.795 C 290.378 124.162,289.210 124.746,292.600 124.532 C 306.250 123.667,307.958 122.139,307.519 111.176 L 307.400 108.200 307.077 111.400 M333.600 108.740 C 333.600 109.887,338.628 115.174,340.553 116.051 C 341.399 116.437,341.535 116.838,341.782 119.672 C 342.149 123.881,344.654 125.710,348.647 124.686 C 349.061 124.580,348.629 124.472,347.687 124.446 C 342.981 124.319,342.347 123.214,342.092 114.700 L 341.904 108.400 337.752 108.400 C 335.468 108.400,333.600 108.553,333.600 108.740 M211.342 109.077 C 209.869 109.365,209.161 110.563,208.989 113.059 L 208.828 115.400 209.190 113.433 C 209.662 110.871,210.894 109.649,213.433 109.224 C 215.350 108.902,215.359 108.894,213.800 108.902 C 212.920 108.906,211.814 108.984,211.342 109.077 M208.548 121.200 C 208.548 123.510,208.614 124.455,208.695 123.300 C 208.776 122.145,208.776 120.255,208.695 119.100 C 208.614 117.945,208.548 118.890,208.548 121.200 M282.469 126.436 C 281.097 128.839,279.139 130.845,276.847 132.200 L 274.816 133.400 274.808 136.525 L 274.800 139.649 276.700 139.383 C 284.602 138.276,288.276 134.602,289.383 126.700 L 289.649 124.800 286.525 124.803 L 283.400 124.806 282.469 126.436 M358.514 137.400 C 358.517 138.500,358.595 138.903,358.687 138.295 C 358.779 137.686,358.777 136.786,358.682 136.295 C 358.587 135.803,358.511 136.300,358.514 137.400 M359.015 142.200 C 360.008 156.781,360.064 156.836,375.000 157.748 C 378.756 157.978,377.366 157.410,372.600 156.767 C 363.967 155.602,361.467 153.478,360.357 146.364 C 360.102 144.734,359.660 142.590,359.373 141.600 L 358.852 139.800 359.015 142.200 M274.398 152.500 C 274.394 155.500,273.702 157.198,272.233 157.812 C 271.166 158.258,270.764 158.792,270.075 160.680 C 268.216 165.777,265.782 168.214,260.700 170.068 C 257.999 171.053,257.172 173.208,259.500 173.193 C 267.331 173.144,271.687 169.475,272.814 161.981 C 273.060 160.342,273.519 158.521,273.833 157.935 C 274.422 156.837,275.120 150.800,274.659 150.800 C 274.516 150.800,274.399 151.565,274.398 152.500 M387.722 158.299 C 390.099 158.370,393.879 158.369,396.122 158.298 C 398.365 158.227,396.420 158.169,391.800 158.169 C 387.180 158.170,385.345 158.228,387.722 158.299 M168.307 158.690 C 169.026 158.779,170.106 158.777,170.707 158.686 C 171.308 158.595,170.720 158.522,169.400 158.524 C 168.080 158.526,167.588 158.601,168.307 158.690 M173.500 159.396 C 174.215 159.707,174.800 160.203,174.800 160.497 C 174.800 160.831,175.845 161.278,177.569 161.683 C 184.157 163.229,186.592 165.659,188.380 172.473 C 188.802 174.083,189.430 176.168,189.774 177.107 C 190.119 178.046,190.567 181.106,190.771 183.907 L 191.142 189.000 190.992 182.800 C 190.517 163.192,189.007 160.449,178.286 159.719 C 176.354 159.588,174.678 159.327,174.563 159.140 C 174.447 158.953,173.868 158.807,173.276 158.816 C 172.208 158.831,172.210 158.836,173.500 159.396 M203.904 177.823 C 195.382 179.889,191.733 188.432,195.182 198.244 C 196.782 202.799,199.835 204.936,206.153 205.927 L 208.400 206.279 208.400 203.156 L 208.400 200.034 206.700 199.036 C 204.707 197.867,202.096 195.225,200.824 193.093 L 199.926 191.586 201.198 189.604 C 202.631 187.371,204.447 185.654,206.798 184.311 L 208.394 183.400 208.397 180.300 L 208.400 177.200 207.300 177.233 C 206.695 177.252,205.167 177.517,203.904 177.823 M190.870 196.400 C 190.563 205.617,188.644 207.207,177.200 207.728 C 174.695 207.842,174.717 207.849,177.800 207.920 C 189.464 208.190,191.599 206.368,191.098 196.570 L 190.957 193.800 190.870 196.400 M169.107 208.290 C 169.826 208.379,170.906 208.377,171.507 208.286 C 172.108 208.195,171.520 208.122,170.200 208.124 C 168.880 208.126,168.388 208.201,169.107 208.290 M258.400 211.008 C 258.400 211.787,258.625 212.503,258.900 212.599 C 265.788 214.992,268.697 217.745,270.418 223.500 C 270.752 224.617,271.155 225.200,271.594 225.200 C 272.976 225.200,274.043 226.986,274.376 229.856 C 274.637 232.098,274.701 232.270,274.730 230.800 C 274.749 229.810,274.588 228.190,274.370 227.200 C 274.153 226.210,273.647 223.594,273.245 221.388 C 271.684 212.809,269.774 211.128,260.100 209.820 L 258.400 209.591 258.400 211.008 M374.305 225.483 C 374.802 225.579,375.522 225.575,375.905 225.475 C 376.287 225.375,375.880 225.296,375.000 225.301 C 374.120 225.305,373.807 225.387,374.305 225.483 M363.831 226.175 C 359.929 227.011,359.273 228.459,359.014 236.800 L 358.847 242.200 359.215 237.832 C 360.022 228.251,361.357 226.787,369.991 226.016 L 373.400 225.712 369.800 225.689 C 367.820 225.677,365.134 225.896,363.831 226.175 M358.520 245.200 C 358.520 246.410,358.595 246.905,358.687 246.300 C 358.778 245.695,358.778 244.705,358.687 244.100 C 358.595 243.495,358.520 243.990,358.520 245.200 M274.800 246.802 L 274.800 249.984 276.300 250.760 C 278.014 251.647,281.536 255.173,282.633 257.100 C 283.353 258.365,283.445 258.400,286.072 258.400 C 287.557 258.400,289.543 258.650,290.486 258.956 C 291.429 259.262,293.655 259.614,295.434 259.739 C 303.693 260.316,305.938 262.535,306.987 271.156 L 307.503 275.400 307.551 272.277 C 307.713 261.896,306.202 259.959,297.357 259.210 C 289.113 258.512,289.836 258.863,289.044 255.180 C 287.375 247.412,285.162 245.476,276.100 243.853 L 274.800 243.620 274.800 246.802 M348.691 258.689 C 349.401 258.777,350.661 258.779,351.491 258.692 C 352.321 258.605,351.740 258.533,350.200 258.531 C 348.660 258.529,347.981 258.600,348.691 258.689 M208.546 262.600 C 208.547 264.800,208.614 265.649,208.695 264.487 C 208.776 263.324,208.776 261.524,208.693 260.487 C 208.611 259.449,208.545 260.400,208.546 262.600 M343.400 259.278 C 342.196 259.961,342.062 260.322,341.769 263.684 L 341.498 266.784 339.795 267.782 C 337.985 268.842,335.074 271.876,333.877 273.948 L 333.155 275.200 337.530 275.200 L 341.906 275.200 342.072 268.700 C 342.262 261.253,342.606 260.075,344.805 259.323 C 345.997 258.915,346.055 258.844,345.200 258.835 C 344.650 258.829,343.840 259.028,343.400 259.278 M208.989 270.567 C 209.224 273.895,209.959 274.542,213.717 274.732 C 216.627 274.879,216.628 274.879,217.525 276.438 C 219.127 279.222,223.486 283.200,224.935 283.200 C 225.081 283.200,225.200 281.334,225.200 279.054 L 225.200 274.908 219.700 274.625 C 210.991 274.178,210.015 273.744,209.199 269.952 C 208.834 268.258,208.827 268.279,208.989 270.567 M225.242 288.800 C 225.118 289.418,226.467 301.163,226.807 302.424 C 227.673 305.641,230.375 306.909,237.400 307.394 C 242.649 307.756,244.359 308.266,244.641 309.554 C 246.298 317.107,249.433 320.484,255.900 321.679 C 257.277 321.934,258.400 322.351,258.400 322.609 C 258.400 323.708,259.928 324.422,262.642 324.591 C 265.297 324.756,265.318 324.750,263.190 324.443 C 259.275 323.879,258.881 323.435,258.520 319.179 C 258.304 316.642,258.248 316.530,256.750 315.668 C 254.451 314.345,252.620 312.613,251.230 310.446 L 249.990 308.514 246.723 308.242 C 244.926 308.092,242.904 307.722,242.228 307.420 C 241.553 307.118,239.873 306.756,238.496 306.615 C 230.636 305.813,228.224 303.521,226.780 295.485 C 226.090 291.647,225.332 288.351,225.242 288.800 M74.400 308.510 C 74.400 322.507,73.579 323.528,61.600 324.428 C 57.891 324.707,58.079 324.721,63.200 324.551 C 71.832 324.264,73.074 323.808,73.964 320.600 C 74.457 318.826,75.081 304.000,74.663 304.000 C 74.518 304.000,74.400 306.030,74.400 308.510 M390.992 308.413 C 390.852 308.640,390.580 310.485,390.387 312.513 C 389.563 321.203,387.871 322.741,377.940 323.834 C 370.917 324.607,370.395 324.861,376.439 324.564 C 389.226 323.936,390.063 323.409,390.788 315.531 C 391.495 307.846,391.503 307.587,390.992 308.413 M8.537 315.000 C 8.539 316.760,8.609 317.430,8.693 316.489 C 8.778 315.549,8.777 314.109,8.691 313.289 C 8.605 312.470,8.536 313.240,8.537 315.000 M8.843 320.856 C 8.763 323.573,10.898 324.837,15.400 324.736 C 17.161 324.697,17.052 324.655,14.491 324.386 C 10.841 324.003,9.765 323.327,9.268 321.107 L 8.886 319.400 8.843 320.856 " stroke="none" fill="#ffffff" fill-rule="evenodd"></path><path id="path1" d="M286.700 58.682 C 287.195 58.778,288.005 58.778,288.500 58.682 C 288.995 58.587,288.590 58.509,287.600 58.509 C 286.610 58.509,286.205 58.587,286.700 58.682 M350.300 58.689 C 351.015 58.778,352.185 58.778,352.900 58.689 C 353.615 58.601,353.030 58.528,351.600 58.528 C 350.170 58.528,349.585 58.601,350.300 58.689 M21.923 60.431 C 15.325 61.811,13.184 63.246,11.679 67.294 C 10.851 69.522,9.781 75.114,10.118 75.452 C 10.228 75.561,10.448 74.695,10.607 73.526 C 11.717 65.355,14.733 62.141,22.572 60.776 C 24.019 60.523,25.304 60.156,25.426 59.959 C 25.547 59.761,25.592 59.623,25.524 59.652 C 25.456 59.680,23.835 60.031,21.923 60.431 M374.400 59.942 C 374.730 60.137,375.985 60.420,377.188 60.573 C 384.933 61.556,387.883 64.427,389.432 72.489 L 389.991 75.400 389.772 72.865 C 389.066 64.708,386.302 61.642,378.530 60.396 C 377.029 60.156,375.350 59.875,374.800 59.774 C 374.092 59.643,373.975 59.692,374.400 59.942 M260.691 60.951 C 259.132 62.396,258.401 65.596,259.219 67.400 C 259.483 67.983,259.521 67.810,259.358 66.764 C 259.029 64.646,259.825 62.218,261.238 61.029 C 261.911 60.463,262.294 60.000,262.089 60.000 C 261.884 60.000,261.255 60.428,260.691 60.951 M199.600 60.673 C 202.396 61.649,203.712 62.621,204.845 64.544 C 205.511 65.675,205.933 66.150,205.782 65.600 C 205.127 63.214,201.708 60.360,199.600 60.440 C 199.067 60.461,199.067 60.486,199.600 60.673 M258.447 69.783 C 258.404 71.963,258.274 72.296,256.919 73.683 L 255.438 75.200 256.919 75.200 C 258.345 75.200,258.400 75.148,258.400 73.800 C 258.400 73.030,258.580 72.400,258.800 72.400 C 259.255 72.400,259.255 70.387,258.800 68.600 C 258.552 67.626,258.486 67.850,258.447 69.783 M247.339 75.654 C 247.868 75.961,248.202 75.958,248.519 75.641 C 248.840 75.320,248.641 75.203,247.780 75.212 C 246.746 75.223,246.691 75.277,247.339 75.654 M252.100 75.476 C 252.485 75.576,253.115 75.576,253.500 75.476 C 253.885 75.375,253.570 75.293,252.800 75.293 C 252.030 75.293,251.715 75.375,252.100 75.476 M393.715 75.896 C 394.988 75.976,396.968 75.975,398.115 75.894 C 399.262 75.814,398.220 75.749,395.800 75.750 C 393.380 75.751,392.442 75.816,393.715 75.896 M206.909 77.600 C 206.909 78.590,206.987 78.995,207.082 78.500 C 207.178 78.005,207.178 77.195,207.082 76.700 C 206.987 76.205,206.909 76.610,206.909 77.600 M241.444 78.328 C 241.315 78.538,240.532 78.836,239.704 78.991 C 234.441 79.976,230.103 84.275,229.001 89.600 C 228.841 90.370,228.416 91.341,228.055 91.758 C 227.434 92.477,227.443 92.494,228.240 92.076 C 228.727 91.821,229.434 90.664,229.925 89.318 C 231.786 84.220,234.218 81.786,239.312 79.927 C 241.529 79.119,242.310 78.577,241.880 78.147 C 241.770 78.037,241.574 78.118,241.444 78.328 M241.600 80.710 C 241.600 80.954,240.512 81.733,239.181 82.442 C 235.745 84.274,228.654 92.798,231.465 91.720 C 231.780 91.599,232.490 90.607,233.043 89.515 C 234.327 86.980,236.980 84.327,239.515 83.043 C 241.331 82.123,242.334 81.001,241.809 80.476 C 241.694 80.361,241.600 80.466,241.600 80.710 M206.493 83.200 C 206.493 83.970,206.575 84.285,206.676 83.900 C 206.776 83.515,206.776 82.885,206.676 82.500 C 206.575 82.115,206.493 82.430,206.493 83.200 M205.987 85.900 C 205.980 86.505,205.612 87.990,205.170 89.200 C 204.728 90.410,204.173 92.030,203.937 92.800 C 202.223 98.398,196.405 103.998,192.300 104.000 C 191.915 104.000,191.600 104.188,191.600 104.418 C 191.600 104.648,191.158 105.278,190.618 105.818 C 190.078 106.358,189.780 106.800,189.956 106.800 C 190.132 106.800,190.590 106.452,190.975 106.028 C 191.359 105.603,192.962 104.868,194.537 104.394 C 198.305 103.261,200.875 101.577,202.350 99.275 C 204.130 96.496,207.286 84.800,206.256 84.800 C 206.115 84.800,205.994 85.295,205.987 85.900 M203.000 89.268 C 202.340 90.399,201.350 92.152,200.800 93.162 C 199.148 96.198,194.341 100.565,191.750 101.384 C 191.722 101.393,191.575 101.850,191.423 102.400 C 191.272 102.950,191.294 103.220,191.474 103.000 C 191.653 102.780,193.006 102.000,194.479 101.267 C 197.981 99.525,200.043 97.226,202.177 92.684 C 204.768 87.170,205.150 85.584,203.000 89.268 M193.781 94.100 L 192.200 95.800 193.900 94.219 C 194.835 93.349,195.600 92.584,195.600 92.519 C 195.600 92.216,195.252 92.519,193.781 94.100 M304.946 108.977 C 304.599 114.783,300.667 119.498,294.897 121.028 C 292.641 121.626,288.668 124.000,289.924 124.000 C 290.118 124.000,290.585 123.658,290.963 123.241 C 291.350 122.813,292.941 122.178,294.607 121.785 C 298.137 120.954,301.170 119.311,302.575 117.468 C 304.200 115.338,306.161 108.793,305.328 108.279 C 305.148 108.168,304.976 108.482,304.946 108.977 M341.100 108.264 C 341.919 108.438,342.004 108.696,342.040 111.128 C 342.077 113.592,342.108 113.682,342.436 112.291 C 343.064 109.623,342.697 108.210,341.357 108.137 C 340.537 108.092,340.462 108.129,341.100 108.264 M299.600 110.867 C 298.140 113.416,296.243 115.223,293.199 116.962 C 292.210 117.528,291.694 117.993,292.054 117.995 C 294.133 118.010,298.959 113.567,300.845 109.900 C 302.104 107.452,301.118 108.218,299.600 110.867 M302.081 110.952 C 300.143 115.095,294.962 119.600,292.136 119.600 C 291.841 119.600,291.600 119.769,291.600 119.976 C 291.600 120.534,294.808 119.337,297.227 117.878 C 299.491 116.512,301.734 113.603,302.956 110.450 C 304.007 107.735,303.432 108.065,302.081 110.952 M342.649 115.015 C 342.512 115.373,342.421 116.146,342.446 116.733 C 342.480 117.532,342.570 117.398,342.804 116.200 C 343.135 114.500,343.062 113.940,342.649 115.015 M343.212 120.211 C 343.192 120.887,344.379 122.363,345.321 122.832 C 346.052 123.197,346.023 123.114,345.143 122.336 C 344.561 121.821,343.892 121.040,343.655 120.600 C 343.418 120.160,343.219 119.985,343.212 120.211 M278.105 124.105 C 278.157 124.367,277.795 124.643,277.300 124.718 C 276.805 124.794,276.400 124.680,276.400 124.465 C 276.400 123.686,274.862 124.500,274.636 125.399 C 274.392 126.371,274.780 131.200,275.101 131.200 C 275.591 131.200,279.133 127.900,280.200 126.450 C 280.893 125.508,281.738 124.812,282.200 124.803 C 282.786 124.792,282.859 124.698,282.472 124.453 C 282.181 124.269,281.241 124.246,280.382 124.403 C 279.524 124.560,278.906 124.553,279.009 124.386 C 279.111 124.220,278.929 123.981,278.603 123.856 C 278.265 123.727,278.051 123.834,278.105 124.105 M285.000 124.400 C 284.854 124.636,285.295 124.797,286.076 124.794 C 287.078 124.789,287.254 124.693,286.800 124.400 C 286.022 123.897,285.311 123.897,285.000 124.400 M274.514 133.800 C 274.517 134.900,274.595 135.303,274.687 134.695 C 274.779 134.086,274.777 133.186,274.682 132.695 C 274.587 132.203,274.511 132.700,274.514 133.800 M360.671 140.831 C 361.151 141.364,361.766 142.700,362.039 143.800 C 363.535 149.828,366.410 152.823,372.258 154.445 C 373.664 154.834,375.286 155.524,375.861 155.977 C 376.437 156.430,377.109 156.793,377.354 156.784 C 377.599 156.775,377.317 156.506,376.727 156.186 C 376.138 155.865,375.540 155.243,375.401 154.802 C 375.261 154.361,374.895 154.000,374.588 154.000 C 370.222 154.000,362.800 146.944,362.800 142.794 C 362.800 142.409,362.125 141.592,361.300 140.978 C 359.946 139.970,359.885 139.956,360.671 140.831 M363.111 141.293 C 363.622 141.539,364.532 142.801,365.184 144.166 C 366.959 147.883,372.240 152.400,374.811 152.400 C 375.737 152.400,375.087 151.319,373.900 150.886 C 371.503 150.011,368.283 147.078,366.663 144.294 C 365.541 142.367,364.794 141.537,363.903 141.226 C 362.351 140.685,361.924 140.721,363.111 141.293 M372.600 144.000 C 373.683 145.100,374.660 146.000,374.770 146.000 C 374.880 146.000,374.083 145.100,373.000 144.000 C 371.917 142.900,370.940 142.000,370.830 142.000 C 370.720 142.000,371.517 142.900,372.600 144.000 M208.544 147.600 C 208.544 149.690,208.612 150.545,208.694 149.500 C 208.776 148.455,208.776 146.745,208.694 145.700 C 208.612 144.655,208.544 145.510,208.544 147.600 M272.590 154.724 C 271.204 157.312,267.473 158.380,263.000 157.467 C 261.838 157.229,261.564 157.256,262.000 157.564 C 262.330 157.797,263.050 158.015,263.600 158.048 L 264.600 158.109 263.600 158.285 C 260.687 158.799,256.574 165.072,258.407 166.205 C 259.372 166.801,265.540 161.278,266.188 159.237 C 266.336 158.773,266.957 158.343,267.718 158.179 C 270.643 157.548,272.023 156.722,272.846 155.111 C 273.875 153.093,273.648 152.748,272.590 154.724 M268.600 156.422 C 267.720 156.838,267.234 157.184,267.520 157.190 C 268.102 157.201,270.400 156.084,270.400 155.790 C 270.400 155.556,270.518 155.514,268.600 156.422 M258.267 157.867 C 258.120 158.013,258.000 158.463,258.000 158.867 C 258.000 159.747,259.129 159.850,259.455 159.000 C 259.582 158.670,260.161 158.387,260.743 158.372 C 261.693 158.347,261.719 158.309,261.000 158.000 C 260.015 157.577,258.625 157.509,258.267 157.867 M172.274 160.380 C 173.726 161.265,174.197 162.010,174.562 164.000 L 174.820 165.400 174.214 164.200 C 173.612 163.007,173.621 163.473,174.243 165.650 C 174.376 166.118,174.331 166.405,174.143 166.288 C 173.954 166.172,173.800 166.693,173.800 167.446 C 173.800 168.770,174.413 168.560,174.912 167.065 C 175.282 165.954,180.188 169.967,182.058 172.911 C 182.788 174.060,183.541 175.066,183.732 175.146 C 186.627 176.370,188.466 180.307,189.737 188.000 C 189.828 188.550,189.821 187.763,189.722 186.250 C 189.495 182.787,188.353 178.274,187.064 175.747 C 186.517 174.676,185.597 172.776,185.017 171.524 C 183.661 168.591,180.509 165.682,177.314 164.412 C 175.317 163.619,174.827 163.231,174.427 162.125 C 174.151 161.362,173.453 160.537,172.793 160.196 C 171.132 159.337,170.773 159.465,172.274 160.380 M174.565 168.494 C 173.607 171.468,174.640 177.785,176.095 177.840 C 176.679 177.862,177.622 178.185,178.190 178.557 C 178.758 178.929,179.425 179.108,179.673 178.955 C 179.931 178.796,180.013 178.855,179.866 179.093 C 179.725 179.322,179.922 179.755,180.304 180.055 C 180.934 180.548,180.948 180.533,180.451 179.900 C 179.986 179.307,179.986 179.198,180.451 179.186 C 180.755 179.178,180.465 178.717,179.800 178.153 L 178.600 177.135 179.830 177.741 C 180.506 178.075,181.607 178.855,182.276 179.474 C 182.945 180.093,183.902 180.960,184.401 181.400 L 185.309 182.200 184.673 180.956 C 184.323 180.272,183.223 178.874,182.229 177.851 C 180.693 176.270,180.593 176.079,181.567 176.583 C 184.290 177.991,186.362 180.998,187.644 185.400 C 188.504 188.353,188.602 187.507,187.796 184.089 C 187.013 180.765,185.825 178.523,183.400 175.790 C 176.555 168.075,175.091 166.865,174.565 168.494 M205.275 187.900 C 201.426 191.674,201.430 191.528,205.075 195.120 L 208.200 198.200 208.322 195.800 C 208.389 194.480,208.614 193.229,208.822 193.020 C 209.323 192.517,209.307 190.513,208.800 190.200 C 208.580 190.064,208.400 188.973,208.400 187.776 C 208.400 185.056,208.166 185.065,205.275 187.900 M189.254 196.685 C 189.031 200.315,186.616 203.508,182.955 205.013 C 181.660 205.545,180.960 205.984,181.400 205.987 C 185.098 206.012,190.166 200.141,189.474 196.634 C 189.316 195.836,189.307 195.839,189.254 196.685 M186.801 198.798 C 186.522 199.470,185.373 200.857,184.247 201.879 C 182.624 203.352,182.475 203.578,183.527 202.969 C 185.240 201.977,188.032 198.299,187.486 197.753 C 187.388 197.655,187.080 198.125,186.801 198.798 M258.093 211.600 C 258.093 212.370,258.175 212.685,258.276 212.300 C 258.376 211.915,258.376 211.285,258.276 210.900 C 258.175 210.515,258.093 210.830,258.093 211.600 M258.240 215.536 C 258.114 215.740,258.021 217.724,258.034 219.945 C 258.047 222.166,257.939 224.175,257.794 224.409 C 257.387 225.069,258.338 225.941,259.215 225.712 C 259.652 225.598,260.000 225.706,260.000 225.958 C 260.000 226.263,260.537 226.324,261.661 226.144 C 262.867 225.951,263.244 226.004,263.038 226.339 C 262.881 226.593,262.934 226.800,263.157 226.800 C 263.379 226.800,263.734 226.489,263.947 226.108 C 264.309 225.461,264.393 225.468,265.236 226.208 C 265.732 226.644,266.006 226.775,265.845 226.500 C 265.468 225.854,266.178 225.885,268.185 226.600 C 269.056 226.910,269.846 227.087,269.940 226.993 C 270.034 226.899,269.681 226.663,269.155 226.469 C 268.630 226.274,267.930 226.013,267.600 225.889 C 267.169 225.727,267.226 225.657,267.800 225.640 C 269.444 225.594,271.930 227.103,272.787 228.669 C 273.350 229.696,273.542 229.871,273.371 229.200 C 272.840 227.114,270.628 225.202,268.740 225.199 C 268.443 225.199,267.701 224.243,267.091 223.075 C 265.353 219.748,258.987 214.326,258.240 215.536 M374.200 226.800 L 373.000 227.105 374.076 227.153 C 374.668 227.179,375.264 227.020,375.400 226.800 C 375.536 226.580,375.592 226.421,375.524 226.447 C 375.456 226.473,374.860 226.632,374.200 226.800 M368.672 227.987 C 364.086 229.452,361.648 232.192,361.010 236.600 C 360.809 237.993,360.877 237.907,361.535 235.935 C 363.233 230.852,365.466 228.974,371.400 227.640 C 372.462 227.401,372.664 227.274,372.000 227.262 C 371.450 227.251,369.952 227.578,368.672 227.987 M367.759 230.900 C 365.868 232.172,363.200 235.221,363.200 236.109 C 363.200 236.355,363.713 235.756,364.339 234.778 C 365.694 232.664,366.410 231.999,368.800 230.636 C 369.790 230.072,370.395 229.607,370.145 229.605 C 369.895 229.602,368.821 230.185,367.759 230.900 M208.546 235.800 C 208.547 238.000,208.614 238.849,208.695 237.687 C 208.776 236.524,208.776 234.724,208.693 233.687 C 208.611 232.649,208.545 233.600,208.546 235.800 M274.509 249.600 C 274.509 250.590,274.587 250.995,274.682 250.500 C 274.778 250.005,274.778 249.195,274.682 248.700 C 274.587 248.205,274.509 248.610,274.509 249.600 M274.649 254.551 C 274.505 255.954,274.511 257.424,274.662 257.817 C 274.865 258.345,274.798 258.446,274.406 258.204 C 274.054 257.986,273.972 258.031,274.162 258.338 C 274.319 258.592,274.876 258.800,275.400 258.800 C 275.924 258.800,276.469 258.989,276.612 259.219 C 276.789 259.506,277.051 259.489,277.439 259.168 C 277.766 258.896,278.585 258.790,279.372 258.918 C 281.292 259.230,281.438 258.413,279.827 256.377 C 278.773 255.045,275.414 252.000,274.999 252.000 C 274.950 252.000,274.793 253.148,274.649 254.551 M283.519 258.909 C 284.772 259.210,285.363 259.197,285.699 258.861 C 286.047 258.513,285.625 258.412,283.980 258.448 L 281.800 258.496 283.519 258.909 M291.032 260.457 C 291.561 261.185,292.423 261.654,293.800 261.964 C 299.885 263.335,303.007 266.392,304.629 272.567 C 305.464 275.749,305.884 275.497,305.204 272.221 C 303.987 266.358,300.824 263.019,295.293 261.762 C 293.592 261.375,291.764 260.685,291.232 260.229 L 290.264 259.400 291.032 260.457 M344.369 261.169 C 343.726 261.812,343.207 262.577,343.216 262.869 C 343.225 263.161,343.499 262.909,343.824 262.308 C 344.150 261.708,344.908 260.950,345.508 260.624 C 346.109 260.299,346.361 260.025,346.069 260.016 C 345.777 260.007,345.012 260.526,344.369 261.169 M294.241 264.526 C 298.256 266.461,300.140 268.315,302.002 272.162 C 302.864 273.943,303.576 275.125,303.585 274.789 C 303.683 270.912,297.380 264.378,292.600 263.402 C 291.935 263.266,292.666 263.767,294.241 264.526 M291.600 265.392 C 291.600 265.497,292.346 265.964,293.257 266.429 C 295.614 267.632,298.703 270.648,300.089 273.100 C 301.364 275.355,301.808 275.800,301.207 274.219 C 299.828 270.592,291.600 263.032,291.600 265.392 M342.406 266.633 C 342.409 267.275,342.584 268.070,342.795 268.400 C 343.055 268.809,343.099 268.490,342.932 267.400 C 342.629 265.423,342.398 265.086,342.406 266.633 M210.400 269.824 C 210.400 271.200,213.724 273.647,215.487 273.568 C 215.879 273.551,215.443 273.269,214.517 272.941 C 213.592 272.613,212.287 271.721,211.617 270.958 C 210.948 270.196,210.400 269.686,210.400 269.824 M342.079 272.400 C 342.085 275.198,342.111 275.288,342.461 273.726 C 342.697 272.675,342.695 271.560,342.454 270.726 C 342.128 269.595,342.073 269.841,342.079 272.400 M217.800 273.566 L 216.200 273.818 218.400 274.106 C 221.592 274.523,224.313 274.464,224.617 273.972 C 224.801 273.675,223.982 273.615,221.941 273.776 C 219.967 273.932,219.263 273.885,219.800 273.632 C 220.710 273.205,220.198 273.188,217.800 273.566 M225.232 282.100 C 225.214 283.145,225.344 284.000,225.520 284.000 C 225.696 284.000,225.772 283.325,225.691 282.500 C 225.461 280.178,225.266 280.009,225.232 282.100 M227.244 290.922 C 227.910 291.524,228.470 292.650,228.792 294.033 C 230.150 299.866,235.519 304.800,240.511 304.800 C 240.745 304.800,241.281 305.112,241.702 305.492 C 242.443 306.163,242.452 306.152,241.993 305.143 C 241.670 304.435,240.987 303.945,239.859 303.613 C 234.668 302.081,231.193 298.621,229.601 293.400 C 229.258 292.274,228.682 291.530,227.657 290.889 L 226.200 289.979 227.244 290.922 M230.259 291.474 C 230.511 291.653,231.216 292.854,231.825 294.142 C 233.266 297.188,236.001 299.956,239.000 301.404 C 240.320 302.041,241.532 302.751,241.694 302.981 C 241.875 303.239,241.988 303.169,241.988 302.800 C 241.988 301.883,241.530 301.377,240.000 300.606 C 237.017 299.103,233.022 294.859,231.926 292.031 C 231.857 291.852,231.350 291.580,230.800 291.427 C 230.250 291.273,230.006 291.294,230.259 291.474 M74.114 295.400 C 74.117 296.500,74.195 296.903,74.287 296.295 C 74.379 295.686,74.377 294.786,74.282 294.295 C 74.187 293.803,74.111 294.300,74.114 295.400 M73.701 305.400 C 73.705 306.280,73.787 306.593,73.883 306.095 C 73.979 305.598,73.975 304.878,73.875 304.495 C 73.775 304.113,73.696 304.520,73.701 305.400 M393.715 307.496 C 394.988 307.576,396.968 307.575,398.115 307.494 C 399.262 307.414,398.220 307.349,395.800 307.350 C 393.380 307.351,392.442 307.416,393.715 307.496 M250.200 307.973 C 250.640 308.177,252.001 308.356,253.225 308.372 C 255.157 308.396,255.602 308.558,256.600 309.600 C 258.037 311.100,258.400 311.108,258.400 309.641 C 258.400 308.492,258.374 308.479,255.500 308.224 C 253.905 308.083,251.880 307.885,251.000 307.785 C 249.810 307.649,249.605 307.698,250.200 307.973 M389.367 308.306 C 389.128 308.468,388.590 309.938,388.171 311.573 C 386.633 317.566,381.563 321.934,376.058 322.009 C 375.696 322.014,374.950 322.366,374.400 322.792 L 373.400 323.566 375.000 323.001 C 375.880 322.690,376.955 322.427,377.389 322.418 C 383.358 322.285,388.043 317.676,389.013 310.984 C 389.171 309.893,389.480 308.775,389.699 308.500 C 390.146 307.940,390.017 307.865,389.367 308.306 M258.440 313.500 C 258.470 315.255,258.556 315.563,258.800 314.800 C 259.265 313.348,259.265 311.200,258.800 311.200 C 258.575 311.200,258.417 312.207,258.440 313.500 M383.400 316.322 C 381.764 318.185,381.641 318.418,382.722 317.600 C 383.803 316.782,386.039 313.943,385.539 314.022 C 385.463 314.034,384.500 315.069,383.400 316.322 M72.437 315.400 C 72.252 318.054,69.581 320.935,66.057 322.280 L 64.600 322.837 65.973 322.614 C 69.353 322.065,73.312 317.764,72.681 315.326 C 72.514 314.680,72.487 314.689,72.437 315.400 M259.000 316.800 C 258.846 317.710,258.804 318.538,258.907 318.640 C 259.010 318.743,259.213 318.077,259.360 317.160 C 259.507 316.243,259.548 315.415,259.453 315.320 C 259.358 315.224,259.154 315.890,259.000 316.800 M379.600 319.200 C 378.830 319.622,378.344 319.974,378.520 319.983 C 378.944 320.005,381.200 318.832,381.200 318.590 C 381.200 318.328,381.177 318.337,379.600 319.200 M259.216 319.520 C 259.187 320.466,260.394 322.369,261.304 322.815 L 262.200 323.254 261.317 322.527 C 260.831 322.127,260.163 321.170,259.832 320.400 C 259.502 319.630,259.224 319.234,259.216 319.520 M10.012 319.894 C 10.005 320.165,10.495 320.894,11.100 321.513 C 11.705 322.132,11.910 322.270,11.555 321.819 C 11.200 321.369,10.710 320.640,10.467 320.200 C 10.223 319.760,10.019 319.622,10.012 319.894 M276.900 324.676 C 277.285 324.776,277.915 324.776,278.300 324.676 C 278.685 324.575,278.370 324.493,277.600 324.493 C 276.830 324.493,276.515 324.575,276.900 324.676 " stroke="none" fill="#0055aa" fill-rule="evenodd"></path><path id="path2" d="M31.454 58.680 C 31.300 58.834,30.055 58.995,28.687 59.039 C 10.998 59.601,9.464 61.504,8.874 83.600 C 8.643 92.252,8.642 298.045,8.873 309.800 C 9.142 323.500,9.427 323.975,17.600 324.329 C 30.502 324.887,55.361 324.713,56.364 324.057 C 56.931 323.686,57.236 323.616,57.063 323.897 C 56.424 324.934,67.583 323.633,70.028 322.386 C 74.446 320.132,74.311 322.357,74.367 250.800 L 74.400 208.200 118.500 208.200 C 184.701 208.200,186.832 208.010,189.391 201.884 C 191.022 197.978,191.021 183.372,189.389 177.600 C 189.047 176.390,188.444 174.229,188.048 172.797 C 186.224 166.191,183.383 163.383,177.107 161.986 C 175.586 161.648,174.740 161.242,174.594 160.781 C 173.935 158.705,175.204 158.755,118.440 158.551 L 74.281 158.393 74.440 133.197 L 74.600 108.002 126.600 107.916 C 155.200 107.868,180.462 107.877,182.737 107.936 C 185.521 108.008,186.790 107.907,186.617 107.628 C 186.449 107.356,186.786 107.297,187.588 107.458 C 188.318 107.604,189.500 107.446,190.507 107.067 C 191.438 106.717,193.631 106.139,195.380 105.782 C 204.584 103.907,206.716 99.321,207.455 79.800 C 208.149 61.498,206.658 59.484,192.111 59.080 C 189.642 59.012,187.497 58.831,187.345 58.678 C 186.911 58.244,182.077 58.352,181.799 58.801 C 181.634 59.069,181.301 59.068,180.797 58.799 C 179.810 58.270,39.329 58.303,38.341 58.832 C 37.903 59.066,37.558 59.055,37.401 58.801 C 37.122 58.351,31.889 58.244,31.454 58.680 M274.584 58.749 C 274.459 58.875,271.801 58.986,268.678 58.997 C 260.279 59.025,259.130 59.652,258.558 64.520 C 258.323 66.518,258.172 66.781,256.829 67.536 C 255.062 68.529,251.020 72.678,250.634 73.894 C 250.231 75.164,248.207 76.077,247.007 75.531 C 245.830 74.994,243.584 75.387,242.341 76.347 C 241.823 76.747,240.238 77.299,238.818 77.573 C 231.231 79.040,228.716 81.679,227.404 89.551 C 227.244 90.515,226.750 91.917,226.307 92.669 C 225.738 93.633,225.566 94.438,225.724 95.410 C 225.847 96.166,225.768 96.896,225.549 97.032 C 225.306 97.182,225.225 98.860,225.341 101.339 C 225.446 103.573,225.433 106.165,225.312 107.100 L 225.091 108.800 222.646 108.801 C 210.105 108.807,208.724 110.482,208.788 125.614 C 208.813 131.738,208.536 177.680,208.454 181.000 C 208.395 183.358,208.366 183.416,206.798 184.311 C 204.447 185.654,202.631 187.371,201.198 189.604 L 199.926 191.586 200.824 193.093 C 202.096 195.225,204.707 197.867,206.700 199.036 C 207.635 199.585,208.423 200.251,208.451 200.517 C 208.479 200.783,208.555 212.610,208.621 226.800 C 208.762 257.130,208.984 267.643,209.525 269.709 C 210.496 273.419,212.258 274.215,220.449 274.648 L 225.642 274.922 225.400 276.961 C 225.267 278.082,225.318 280.125,225.513 281.500 C 225.708 282.875,225.717 284.000,225.534 284.000 C 225.350 284.000,225.203 284.855,225.206 285.900 C 225.210 287.092,225.338 287.601,225.551 287.266 C 225.808 286.860,225.941 286.932,226.107 287.567 C 226.227 288.026,226.162 288.300,225.963 288.177 C 225.346 287.796,225.562 289.493,226.360 291.289 C 226.777 292.230,227.325 294.128,227.577 295.507 C 228.778 302.088,231.522 304.680,238.660 305.975 C 239.972 306.212,241.748 306.765,242.607 307.204 C 244.361 308.098,245.295 308.191,246.426 307.586 C 247.035 307.260,247.200 307.303,247.200 307.786 C 247.200 308.217,247.604 308.400,248.558 308.400 C 249.749 308.400,250.074 308.645,251.193 310.389 C 252.618 312.610,254.435 314.336,256.753 315.670 C 258.179 316.491,258.322 316.733,258.522 318.663 C 258.972 323.030,260.239 324.045,265.600 324.335 C 271.062 324.631,368.140 324.810,368.800 324.525 C 369.130 324.383,370.300 324.242,371.400 324.213 C 372.500 324.183,375.290 323.859,377.600 323.492 C 386.974 322.004,388.502 320.644,389.841 312.599 C 390.723 307.299,390.836 307.200,395.983 307.200 L 400.000 307.200 400.000 266.187 L 400.000 225.175 389.300 225.238 C 383.415 225.272,378.438 225.395,378.239 225.511 C 378.041 225.627,377.321 225.756,376.639 225.797 C 366.690 226.401,362.619 227.988,360.984 231.899 C 360.170 233.849,358.811 244.486,358.801 249.000 C 358.797 250.540,358.694 253.421,358.571 255.402 L 358.348 259.003 352.474 259.022 C 342.369 259.054,341.890 259.686,342.422 272.303 C 342.480 273.680,342.453 274.876,342.363 274.961 C 342.115 275.194,332.375 275.317,318.946 275.255 L 306.892 275.200 306.421 271.980 C 305.255 264.003,302.860 261.486,295.400 260.397 C 293.640 260.139,291.641 259.648,290.958 259.305 C 289.972 258.809,289.459 258.771,288.458 259.120 C 287.766 259.361,287.200 259.401,287.200 259.209 C 287.200 259.016,287.515 258.776,287.900 258.676 C 288.286 258.575,288.053 258.472,287.380 258.446 C 286.709 258.421,285.961 258.599,285.718 258.842 C 285.429 259.131,284.677 259.175,283.538 258.968 C 282.582 258.795,282.115 258.583,282.500 258.497 C 283.361 258.305,283.362 258.235,282.530 256.886 C 280.397 253.429,275.049 249.214,274.689 250.706 C 274.597 251.088,274.596 248.223,274.687 244.340 C 274.800 239.524,274.714 237.194,274.418 237.011 C 274.135 236.836,274.072 235.878,274.238 234.258 C 274.675 229.993,273.170 225.200,271.394 225.200 C 271.137 225.200,270.698 224.435,270.418 223.500 C 269.259 219.623,266.522 215.964,263.619 214.410 C 261.906 213.494,258.446 212.461,258.323 212.830 C 258.237 213.090,258.301 173.122,258.392 170.360 C 258.396 170.228,259.565 169.625,260.990 169.019 C 264.795 167.402,266.921 165.337,268.773 161.459 C 270.032 158.821,270.565 158.111,271.571 157.732 C 274.057 156.796,274.533 153.752,274.529 138.800 C 274.529 134.950,274.602 132.115,274.693 132.500 C 275.125 134.326,280.255 130.313,282.489 126.402 C 282.990 125.524,283.679 124.805,284.020 124.803 C 284.361 124.801,284.838 124.602,285.080 124.360 C 285.401 124.039,285.901 124.057,286.917 124.425 C 288.134 124.865,288.616 124.822,290.657 124.095 C 291.946 123.637,293.900 123.157,295.000 123.030 C 300.385 122.408,303.791 120.276,305.130 116.690 C 306.004 114.351,306.943 108.955,306.579 108.366 C 306.429 108.124,313.000 108.046,324.471 108.154 L 342.600 108.325 342.503 110.063 C 341.805 122.581,342.538 124.013,349.800 124.311 C 351.780 124.393,354.512 124.551,355.871 124.664 L 358.341 124.868 358.551 128.134 C 358.667 129.930,358.818 133.290,358.887 135.600 C 358.976 138.538,359.211 140.160,359.669 141.000 C 360.030 141.660,360.534 143.460,360.789 145.000 C 361.954 152.017,364.714 154.713,372.038 155.988 C 373.447 156.234,375.279 156.697,376.108 157.017 C 376.938 157.338,378.288 157.580,379.108 157.556 L 380.600 157.512 378.804 157.161 C 377.817 156.967,376.499 156.432,375.875 155.971 C 375.252 155.510,373.608 154.819,372.222 154.434 C 366.412 152.824,363.531 149.815,362.039 143.800 C 361.766 142.700,361.164 141.395,360.702 140.900 C 360.239 140.405,360.050 140.000,360.281 140.000 C 360.513 140.000,360.933 140.278,361.215 140.618 C 361.497 140.958,361.964 141.146,362.253 141.035 C 363.580 140.526,365.141 141.680,366.663 144.294 C 368.283 147.078,371.503 150.011,373.900 150.886 C 375.087 151.319,375.737 152.400,374.811 152.400 C 372.232 152.400,366.958 147.881,365.173 144.143 C 364.196 142.096,363.414 141.200,362.606 141.200 C 362.405 141.200,363.949 145.133,364.783 146.750 C 366.171 149.436,369.392 151.972,372.948 153.176 C 374.284 153.629,375.170 154.208,375.487 154.836 C 375.754 155.366,376.114 155.815,376.287 155.834 C 376.459 155.852,377.050 156.052,377.600 156.278 C 378.150 156.503,379.308 156.817,380.172 156.976 C 381.144 157.154,381.556 157.380,381.250 157.569 C 380.978 157.737,385.085 157.894,390.378 157.918 L 400.000 157.960 400.000 116.980 L 400.000 76.000 395.971 76.000 C 390.929 76.000,390.870 75.949,390.372 71.131 C 389.366 61.414,388.104 60.437,375.000 59.240 C 372.580 59.019,369.520 58.830,368.200 58.820 C 343.987 58.633,274.753 58.580,274.584 58.749 M25.406 60.390 C 25.256 60.633,24.788 60.723,24.366 60.589 C 23.904 60.442,23.600 60.535,23.600 60.823 C 23.600 61.141,23.194 61.219,22.380 61.056 C 21.526 60.885,21.244 60.948,21.440 61.264 C 21.636 61.581,21.392 61.634,20.626 61.442 C 19.829 61.242,19.613 61.297,19.829 61.647 C 20.037 61.983,19.868 62.059,19.262 61.900 C 18.733 61.762,18.496 61.831,18.650 62.080 C 18.808 62.337,18.571 62.381,18.000 62.200 C 17.326 61.986,17.179 62.042,17.416 62.425 C 17.640 62.788,17.539 62.862,17.070 62.682 C 16.707 62.543,16.445 62.557,16.488 62.714 C 16.590 63.087,13.087 66.590,12.714 66.488 C 12.557 66.445,12.543 66.707,12.682 67.070 C 12.862 67.539,12.788 67.640,12.425 67.416 C 12.042 67.179,11.986 67.326,12.200 68.000 C 12.381 68.571,12.337 68.808,12.080 68.650 C 11.831 68.496,11.762 68.733,11.900 69.262 C 12.059 69.868,11.983 70.037,11.647 69.829 C 11.297 69.613,11.242 69.829,11.442 70.626 C 11.634 71.392,11.581 71.636,11.264 71.440 C 10.948 71.244,10.885 71.526,11.056 72.380 C 11.219 73.194,11.141 73.600,10.823 73.600 C 10.535 73.600,10.442 73.904,10.589 74.366 C 10.723 74.788,10.645 75.248,10.416 75.390 C 8.527 76.558,11.976 65.164,14.037 63.430 C 16.308 61.520,26.371 58.829,25.406 60.390 M196.000 60.000 C 196.000 60.220,195.741 60.400,195.424 60.400 C 195.107 60.400,194.736 60.220,194.600 60.000 C 194.464 59.780,194.723 59.600,195.176 59.600 C 195.629 59.600,196.000 59.780,196.000 60.000 M378.530 60.396 C 384.833 61.407,387.358 63.224,388.758 67.758 C 389.788 71.092,390.313 75.441,389.635 75.022 C 389.333 74.835,389.249 74.289,389.408 73.562 C 389.578 72.788,389.505 72.400,389.188 72.400 C 388.881 72.400,388.802 72.046,388.964 71.400 C 389.117 70.793,389.044 70.400,388.781 70.400 C 388.520 70.400,388.454 70.061,388.616 69.550 C 388.810 68.940,388.749 68.784,388.400 69.000 C 388.047 69.218,387.992 69.054,388.200 68.400 C 388.384 67.819,388.339 67.590,388.072 67.756 C 387.844 67.896,387.536 67.629,387.388 67.162 C 386.985 65.892,384.556 63.362,383.201 62.800 C 382.546 62.529,382.120 62.129,382.255 61.911 C 382.407 61.664,382.159 61.622,381.600 61.800 C 380.946 62.008,380.782 61.953,381.000 61.600 C 381.216 61.251,381.060 61.190,380.450 61.384 C 379.939 61.546,379.600 61.480,379.600 61.219 C 379.600 60.956,379.207 60.883,378.600 61.036 C 377.954 61.198,377.600 61.119,377.600 60.812 C 377.600 60.501,377.217 60.420,376.492 60.580 C 375.781 60.736,375.101 60.602,374.592 60.205 C 373.823 59.606,373.829 59.593,374.800 59.773 C 375.350 59.875,377.029 60.156,378.530 60.396 M198.400 60.400 C 197.624 60.901,197.200 60.901,197.200 60.400 C 197.200 60.180,197.605 60.003,198.100 60.006 C 198.828 60.011,198.885 60.086,198.400 60.400 M262.400 60.400 C 262.400 60.620,262.265 60.758,262.100 60.707 C 260.737 60.285,258.961 64.208,259.358 66.764 C 259.521 67.810,259.483 67.983,259.219 67.400 C 258.723 66.306,258.727 65.278,259.235 63.451 C 259.785 61.468,262.400 58.947,262.400 60.400 M201.846 61.165 C 204.379 62.315,206.474 65.491,205.565 66.800 C 205.244 67.261,205.210 67.179,205.417 66.450 C 205.600 65.804,205.544 65.587,205.243 65.774 C 204.999 65.924,204.800 65.863,204.800 65.638 C 204.800 64.904,202.434 62.511,201.207 62.003 C 200.549 61.730,200.120 61.329,200.255 61.111 C 200.407 60.864,200.159 60.822,199.600 61.000 C 198.987 61.195,198.787 61.145,198.974 60.843 C 199.351 60.231,199.934 60.297,201.846 61.165 M201.961 62.033 C 202.710 62.489,203.669 63.254,204.093 63.731 L 204.864 64.600 204.254 63.642 C 203.620 62.648,201.696 61.206,201.000 61.204 C 200.780 61.204,201.213 61.576,201.961 62.033 M385.552 64.300 C 386.568 65.345,387.479 66.151,387.575 66.092 C 387.797 65.954,384.325 62.400,383.968 62.400 C 383.822 62.400,384.535 63.255,385.552 64.300 M259.153 71.100 C 259.179 71.815,259.020 72.400,258.800 72.400 C 258.580 72.400,258.400 73.030,258.400 73.800 C 258.400 75.148,258.345 75.200,256.919 75.200 L 255.438 75.200 256.919 73.683 C 258.274 72.296,258.404 71.963,258.447 69.783 C 258.498 67.252,259.050 68.284,259.153 71.100 M206.635 70.298 C 206.198 70.735,205.899 70.040,206.212 69.317 C 206.510 68.632,206.532 68.633,206.697 69.331 C 206.793 69.734,206.765 70.169,206.635 70.298 M207.154 73.600 L 207.120 74.600 206.800 73.600 C 206.306 72.058,206.306 71.236,206.800 72.000 C 207.013 72.330,207.173 73.050,207.154 73.600 M253.500 75.476 C 253.115 75.576,252.485 75.576,252.100 75.476 C 251.715 75.375,252.030 75.293,252.800 75.293 C 253.570 75.293,253.885 75.375,253.500 75.476 M207.009 79.093 C 206.601 81.267,206.325 80.340,206.667 77.947 C 206.855 76.634,207.032 76.170,207.122 76.752 C 207.203 77.276,207.152 78.330,207.009 79.093 M243.093 77.156 C 243.059 77.606,242.822 77.830,242.508 77.709 C 242.105 77.555,242.089 77.375,242.439 76.953 C 243.048 76.219,243.161 76.255,243.093 77.156 M242.043 78.549 C 241.792 78.851,240.555 79.474,239.294 79.934 C 234.264 81.770,231.841 84.171,229.967 89.180 C 229.227 91.158,227.600 93.415,227.600 92.465 C 227.600 92.263,227.851 91.890,228.158 91.635 C 228.465 91.380,228.841 90.503,228.994 89.686 C 229.985 84.396,234.403 79.983,239.704 78.991 C 240.532 78.836,241.307 78.550,241.428 78.355 C 241.549 78.160,241.839 78.000,242.073 78.000 C 242.358 78.000,242.349 78.180,242.043 78.549 M241.759 81.361 C 241.617 81.733,240.607 82.490,239.515 83.043 C 236.980 84.327,234.327 86.980,233.043 89.515 C 232.490 90.607,231.780 91.599,231.465 91.720 C 228.654 92.798,235.745 84.274,239.181 82.442 C 240.512 81.733,241.600 80.954,241.600 80.710 C 241.600 80.466,241.694 80.361,241.809 80.476 C 241.925 80.591,241.902 80.990,241.759 81.361 M235.507 82.816 C 234.696 83.485,233.466 84.700,232.775 85.516 C 232.083 86.332,231.713 86.640,231.952 86.200 C 232.734 84.761,236.012 81.600,236.722 81.600 C 236.865 81.600,236.318 82.147,235.507 82.816 M206.691 83.900 C 206.532 84.567,206.509 84.567,206.219 83.900 C 206.052 83.515,206.052 82.885,206.219 82.500 C 206.603 81.619,206.974 82.719,206.691 83.900 M206.277 86.783 C 205.088 96.819,201.461 102.289,194.610 104.379 C 193.076 104.847,191.456 105.562,191.010 105.969 C 190.074 106.823,187.904 107.602,188.648 106.817 C 188.894 106.557,189.428 106.296,189.835 106.236 C 190.242 106.176,190.851 105.637,191.188 105.039 C 191.584 104.334,192.591 103.630,194.043 103.043 C 199.511 100.831,201.738 98.328,203.777 92.100 C 204.155 90.945,204.624 90.000,204.820 90.000 C 205.015 90.000,205.071 89.730,204.945 89.400 C 204.818 89.070,204.926 88.800,205.184 88.800 C 205.472 88.800,205.556 88.490,205.400 88.000 C 205.257 87.549,205.328 87.200,205.563 87.200 C 205.813 87.200,205.884 86.719,205.740 86.000 C 205.575 85.173,205.657 84.800,206.006 84.800 C 206.377 84.800,206.449 85.328,206.277 86.783 M204.181 88.100 C 202.366 94.081,198.571 99.232,194.479 101.267 C 193.006 102.000,191.653 102.780,191.474 103.000 C 191.294 103.220,191.272 102.950,191.423 102.400 C 191.575 101.850,191.722 101.393,191.750 101.384 C 194.341 100.565,199.148 96.198,200.800 93.162 C 203.591 88.034,204.709 86.360,204.181 88.100 M195.600 92.519 C 195.600 92.584,194.835 93.349,193.900 94.219 L 192.200 95.800 193.781 94.100 C 195.252 92.519,195.600 92.216,195.600 92.519 M305.380 110.119 C 304.220 116.982,301.224 120.227,294.607 121.785 C 292.941 122.178,291.350 122.813,290.963 123.241 C 290.141 124.149,289.638 124.220,289.757 123.412 C 289.875 122.609,290.327 122.211,291.128 122.205 C 291.498 122.202,291.764 122.002,291.720 121.759 C 291.671 121.491,292.046 121.396,292.679 121.517 C 293.315 121.639,293.623 121.560,293.472 121.316 C 293.320 121.071,293.631 120.993,294.272 121.116 C 294.988 121.253,295.230 121.173,295.039 120.863 C 294.863 120.579,294.973 120.492,295.333 120.629 C 298.192 121.727,305.017 114.279,304.235 110.916 C 304.032 110.041,304.072 109.930,304.420 110.400 C 304.769 110.871,304.811 110.756,304.616 109.866 C 304.435 109.037,304.498 108.813,304.852 109.032 C 305.188 109.240,305.255 109.121,305.073 108.645 C 304.907 108.212,304.966 108.055,305.233 108.220 C 305.496 108.383,305.552 109.102,305.380 110.119 M300.845 109.900 C 298.959 113.567,294.133 118.010,292.054 117.995 C 291.694 117.993,292.210 117.528,293.199 116.962 C 296.243 115.223,298.140 113.416,299.600 110.867 C 301.118 108.218,302.104 107.452,300.845 109.900 M302.956 110.450 C 301.734 113.603,299.491 116.512,297.227 117.878 C 294.808 119.337,291.600 120.534,291.600 119.976 C 291.600 119.769,291.841 119.600,292.136 119.600 C 294.962 119.600,300.143 115.095,302.081 110.952 C 303.432 108.065,304.007 107.735,302.956 110.450 M213.395 111.604 C 212.800 111.994,211.994 112.800,211.604 113.395 C 211.167 114.061,210.790 114.308,210.623 114.038 C 210.475 113.797,210.554 113.600,210.800 113.600 C 211.046 113.600,211.119 113.392,210.962 113.138 C 210.772 112.831,210.854 112.786,211.206 113.004 C 211.582 113.236,211.667 113.152,211.499 112.714 C 211.194 111.919,211.919 111.194,212.714 111.499 C 213.152 111.667,213.236 111.582,213.004 111.206 C 212.786 110.854,212.831 110.772,213.138 110.962 C 213.392 111.119,213.600 111.046,213.600 110.800 C 213.600 110.554,213.797 110.475,214.038 110.623 C 214.308 110.790,214.061 111.167,213.395 111.604 M342.804 116.200 C 342.570 117.398,342.480 117.532,342.446 116.733 C 342.402 115.721,342.774 114.231,343.007 114.483 C 343.067 114.547,342.975 115.320,342.804 116.200 M301.609 116.388 C 301.143 117.041,300.558 117.702,300.309 117.856 C 300.059 118.011,300.359 117.476,300.975 116.668 C 302.312 114.915,302.816 114.692,301.609 116.388 M343.869 120.264 C 343.724 120.409,343.963 120.779,344.399 121.085 C 345.608 121.931,346.327 123.403,345.251 122.827 C 343.827 122.065,342.670 120.000,343.667 120.000 C 343.923 120.000,344.014 120.119,343.869 120.264 M279.009 124.386 C 278.906 124.553,279.524 124.560,280.382 124.403 C 281.241 124.246,282.181 124.269,282.472 124.453 C 282.859 124.698,282.786 124.792,282.200 124.803 C 281.738 124.812,280.893 125.508,280.200 126.450 C 279.133 127.900,275.591 131.200,275.101 131.200 C 274.780 131.200,274.392 126.371,274.636 125.399 C 274.862 124.500,276.400 123.686,276.400 124.465 C 276.400 124.680,276.805 124.794,277.300 124.718 C 277.795 124.643,278.157 124.367,278.105 124.105 C 278.051 123.834,278.265 123.727,278.603 123.856 C 278.929 123.981,279.111 124.220,279.009 124.386 M373.000 144.000 C 374.083 145.100,374.880 146.000,374.770 146.000 C 374.660 146.000,373.683 145.100,372.600 144.000 C 371.517 142.900,370.720 142.000,370.830 142.000 C 370.940 142.000,371.917 142.900,373.000 144.000 M273.600 153.416 C 273.600 155.416,271.086 157.452,267.718 158.179 C 266.957 158.343,266.336 158.773,266.188 159.237 C 265.540 161.278,259.372 166.801,258.407 166.205 C 256.574 165.072,260.687 158.799,263.600 158.285 L 264.600 158.109 263.600 158.048 C 262.515 157.983,260.990 157.217,261.923 157.206 C 262.210 157.203,263.261 157.405,264.257 157.656 C 267.188 158.394,273.038 156.557,272.180 155.168 C 272.055 154.966,272.154 154.800,272.400 154.800 C 272.646 154.800,272.736 154.620,272.600 154.400 C 272.464 154.180,272.554 154.000,272.800 154.000 C 273.046 154.000,273.136 153.820,273.000 153.600 C 272.864 153.380,272.943 153.200,273.176 153.200 C 273.409 153.200,273.600 153.297,273.600 153.416 M270.400 155.790 C 270.400 156.084,268.102 157.201,267.520 157.190 C 267.234 157.184,267.720 156.838,268.600 156.422 C 270.518 155.514,270.400 155.556,270.400 155.790 M261.000 158.000 C 261.719 158.309,261.693 158.347,260.743 158.372 C 260.161 158.387,259.582 158.670,259.455 159.000 C 259.129 159.850,258.000 159.747,258.000 158.867 C 258.000 157.572,259.199 157.226,261.000 158.000 M172.873 160.244 C 173.463 160.546,174.162 161.392,174.427 162.125 C 174.827 163.231,175.317 163.619,177.314 164.412 C 180.509 165.682,183.661 168.591,185.017 171.524 C 185.597 172.776,186.517 174.676,187.064 175.747 C 188.884 179.316,190.908 189.808,189.622 189.013 C 189.299 188.814,189.216 188.240,189.382 187.354 C 189.548 186.472,189.481 186.000,189.189 186.000 C 188.944 186.000,188.795 185.595,188.859 185.100 C 188.923 184.605,188.830 183.966,188.652 183.681 C 188.475 183.395,188.429 182.900,188.552 182.581 C 188.675 182.261,188.633 182.000,188.460 182.000 C 188.288 182.000,187.839 181.025,187.463 179.832 C 186.860 177.920,185.135 175.749,183.739 175.146 C 183.552 175.066,182.882 174.190,182.250 173.200 C 180.223 170.028,175.299 165.903,174.915 167.056 C 174.414 168.559,173.800 168.773,173.800 167.446 C 173.800 166.693,173.954 166.172,174.143 166.288 C 174.331 166.405,174.376 166.118,174.243 165.650 C 173.636 163.527,173.616 163.017,174.186 164.200 C 174.922 165.728,174.980 164.799,174.255 163.087 C 173.567 161.462,172.567 160.570,170.573 159.806 L 169.000 159.202 170.400 159.449 C 171.170 159.585,172.283 159.943,172.873 160.244 M179.331 171.268 C 186.001 178.579,186.772 179.746,187.796 184.089 C 188.602 187.507,188.504 188.353,187.644 185.400 C 186.362 180.998,184.290 177.991,181.567 176.583 C 180.593 176.079,180.693 176.270,182.229 177.851 C 183.223 178.874,184.323 180.272,184.673 180.956 L 185.309 182.200 184.401 181.400 C 183.902 180.960,182.945 180.093,182.276 179.474 C 181.607 178.855,180.506 178.075,179.830 177.741 L 178.600 177.135 179.800 178.153 C 180.465 178.717,180.755 179.178,180.451 179.186 C 179.986 179.198,179.986 179.307,180.451 179.900 C 180.948 180.533,180.934 180.548,180.304 180.055 C 179.922 179.755,179.725 179.322,179.866 179.093 C 180.013 178.855,179.931 178.796,179.673 178.955 C 179.425 179.108,178.758 178.929,178.190 178.557 C 177.622 178.185,176.679 177.862,176.095 177.840 C 174.835 177.793,174.482 176.647,174.354 172.200 C 174.199 166.818,175.114 166.646,179.331 171.268 M208.400 187.776 C 208.400 188.973,208.580 190.064,208.800 190.200 C 209.307 190.513,209.323 192.517,208.822 193.020 C 208.614 193.229,208.389 194.480,208.322 195.800 L 208.200 198.200 205.075 195.120 C 201.430 191.528,201.426 191.674,205.275 187.900 C 208.166 185.065,208.400 185.056,208.400 187.776 M190.400 191.600 C 190.400 192.040,190.220 192.400,190.000 192.400 C 189.780 192.400,189.600 192.040,189.600 191.600 C 189.600 191.160,189.780 190.800,190.000 190.800 C 190.220 190.800,190.400 191.160,190.400 191.600 M190.000 194.624 C 190.000 195.204,189.827 195.540,189.600 195.400 C 189.380 195.264,189.200 194.803,189.200 194.376 C 189.200 193.949,189.380 193.600,189.600 193.600 C 189.820 193.600,190.000 194.061,190.000 194.624 M189.465 197.477 C 189.079 199.853,187.143 203.305,185.636 204.303 C 183.607 205.647,181.297 206.263,180.687 205.622 C 180.295 205.210,180.386 205.166,181.150 205.398 C 181.844 205.608,182.019 205.555,181.800 205.200 C 181.582 204.847,181.746 204.792,182.400 205.000 C 182.965 205.179,183.208 205.136,183.052 204.885 C 182.745 204.387,183.904 203.901,184.536 204.263 C 184.791 204.409,184.867 204.381,184.703 204.201 C 184.365 203.828,185.095 202.800,185.698 202.800 C 185.918 202.800,185.858 203.115,185.564 203.500 C 185.271 203.885,185.609 203.671,186.315 203.025 C 187.022 202.379,187.600 201.684,187.600 201.481 C 187.600 201.278,187.246 201.536,186.813 202.056 C 186.381 202.575,186.021 202.797,186.013 202.549 C 186.006 202.301,186.251 201.890,186.557 201.636 C 186.863 201.381,187.334 200.642,187.603 199.992 C 187.874 199.339,188.282 198.927,188.514 199.071 C 188.780 199.235,188.837 199.074,188.668 198.634 C 188.332 197.758,188.751 196.000,189.296 196.000 C 189.544 196.000,189.610 196.581,189.465 197.477 M187.170 198.866 C 186.223 200.654,184.846 202.205,183.527 202.969 C 182.475 203.578,182.624 203.352,184.247 201.879 C 185.373 200.857,186.522 199.470,186.801 198.798 C 187.080 198.125,187.388 197.655,187.486 197.753 C 187.584 197.851,187.442 198.352,187.170 198.866 M180.000 206.000 C 180.488 206.315,180.436 206.389,179.724 206.394 C 179.242 206.397,178.736 206.220,178.600 206.000 C 178.285 205.491,179.212 205.491,180.000 206.000 M177.800 206.400 C 177.940 206.627,177.604 206.800,177.024 206.800 C 176.461 206.800,176.000 206.620,176.000 206.400 C 176.000 206.180,176.349 206.000,176.776 206.000 C 177.203 206.000,177.664 206.180,177.800 206.400 M264.091 219.126 C 265.130 220.130,266.480 221.907,267.091 223.075 C 267.701 224.243,268.443 225.199,268.740 225.199 C 270.566 225.202,272.776 227.058,273.385 229.100 C 273.786 230.442,273.089 230.170,272.400 228.716 C 271.644 227.120,270.202 226.069,268.400 225.801 C 267.035 225.597,267.203 225.746,269.155 226.469 C 269.681 226.663,270.034 226.899,269.940 226.993 C 269.846 227.087,269.056 226.910,268.185 226.600 C 266.178 225.885,265.468 225.854,265.845 226.500 C 266.006 226.775,265.732 226.644,265.236 226.208 C 264.393 225.468,264.309 225.461,263.947 226.108 C 263.734 226.489,263.379 226.800,263.157 226.800 C 262.934 226.800,262.881 226.593,263.038 226.339 C 263.244 226.004,262.867 225.951,261.661 226.144 C 260.537 226.324,260.000 226.263,260.000 225.958 C 260.000 225.706,259.652 225.598,259.215 225.712 C 258.338 225.941,257.387 225.069,257.794 224.409 C 257.939 224.175,258.047 222.166,258.034 219.945 C 258.021 217.724,258.114 215.740,258.240 215.536 C 258.580 214.985,261.930 217.040,264.091 219.126 M376.130 226.500 C 375.955 226.775,375.801 227.180,375.788 227.400 C 375.760 227.855,375.420 227.827,374.000 227.254 L 373.000 226.851 374.000 226.819 C 374.550 226.802,375.270 226.613,375.600 226.400 C 376.400 225.883,376.509 225.903,376.130 226.500 M373.200 227.636 C 373.645 227.950,373.386 227.997,372.200 227.815 C 370.984 227.629,370.744 227.676,371.200 228.009 C 371.660 228.346,371.472 228.390,370.400 228.200 C 369.332 228.010,369.142 228.055,369.600 228.388 C 370.067 228.728,369.934 228.777,369.000 228.610 C 368.340 228.492,368.041 228.507,368.336 228.643 C 368.681 228.803,368.140 229.309,366.814 230.066 C 365.481 230.827,364.341 231.896,363.578 233.099 C 362.320 235.083,362.003 235.128,363.010 233.180 C 363.346 232.531,363.531 232.000,363.421 232.000 C 363.041 232.000,362.002 234.359,362.064 235.078 C 362.209 236.753,362.013 237.436,361.570 236.800 C 361.259 236.355,361.214 236.561,361.393 237.600 C 361.592 238.754,361.555 238.871,361.178 238.266 C 360.122 236.566,362.536 231.123,365.031 229.581 C 367.884 227.818,372.052 226.825,373.200 227.636 M366.800 229.094 C 365.773 229.489,363.600 231.273,363.600 231.722 C 363.600 231.957,364.095 231.687,364.700 231.122 C 365.305 230.557,366.340 229.811,367.000 229.464 C 368.158 228.854,368.032 228.620,366.800 229.094 M368.800 230.636 C 366.410 231.999,365.694 232.664,364.339 234.778 C 363.713 235.756,363.200 236.355,363.200 236.109 C 363.200 234.685,368.642 229.589,370.145 229.605 C 370.395 229.607,369.790 230.072,368.800 230.636 M361.172 240.324 C 361.187 240.612,361.020 240.736,360.800 240.600 C 360.580 240.464,360.413 239.868,360.428 239.276 C 360.458 238.146,361.104 239.056,361.172 240.324 M276.794 253.350 C 280.740 256.473,282.076 259.357,279.372 258.918 C 278.585 258.790,277.766 258.896,277.439 259.168 C 277.051 259.489,276.789 259.506,276.612 259.219 C 276.469 258.989,275.924 258.800,275.400 258.800 C 274.876 258.800,274.319 258.592,274.162 258.338 C 273.972 258.031,274.054 257.986,274.406 258.204 C 274.798 258.446,274.865 258.345,274.662 257.817 C 274.431 257.215,274.733 252.000,274.999 252.000 C 275.048 252.000,275.855 252.608,276.794 253.350 M295.293 261.762 C 301.289 263.125,305.879 268.861,305.554 274.584 C 305.511 275.337,305.492 275.341,305.313 274.642 C 305.157 274.031,305.049 273.992,304.760 274.442 C 304.530 274.799,304.485 274.497,304.634 273.600 C 304.815 272.514,304.767 272.335,304.422 272.800 C 304.073 273.268,304.035 273.146,304.246 272.240 C 304.418 271.505,304.370 271.171,304.116 271.328 C 303.879 271.475,303.783 271.213,303.879 270.688 C 304.067 269.672,301.800 265.829,301.223 266.186 C 301.021 266.311,300.725 266.202,300.566 265.945 C 300.385 265.652,300.450 265.584,300.738 265.762 C 300.992 265.919,301.199 265.902,301.197 265.724 C 301.188 264.602,294.885 261.804,293.229 262.187 C 292.415 262.375,292.325 262.332,292.800 261.984 C 293.270 261.638,293.116 261.578,292.087 261.704 C 291.197 261.813,290.906 261.734,291.182 261.458 C 291.458 261.182,291.367 260.785,290.897 260.225 L 290.206 259.400 291.203 260.229 C 291.751 260.685,293.592 261.375,295.293 261.762 M346.400 260.424 C 346.400 260.657,346.265 260.783,346.100 260.704 C 345.711 260.518,343.623 262.690,343.913 262.980 C 344.034 263.101,343.923 263.200,343.667 263.200 C 342.869 263.200,343.150 262.388,344.369 261.169 C 345.564 259.974,346.400 259.667,346.400 260.424 M295.600 264.507 C 299.144 266.202,303.655 272.010,303.585 274.789 C 303.576 275.125,302.864 273.943,302.002 272.162 C 300.140 268.315,298.256 266.461,294.241 264.526 C 292.666 263.767,291.935 263.266,292.600 263.402 C 293.260 263.537,294.610 264.034,295.600 264.507 M293.656 266.028 C 296.670 267.566,300.087 271.272,301.207 274.219 C 301.808 275.800,301.364 275.355,300.089 273.100 C 298.703 270.648,295.614 267.632,293.257 266.429 C 292.346 265.964,291.600 265.497,291.600 265.392 C 291.600 265.058,291.989 265.178,293.656 266.028 M342.932 267.400 C 343.099 268.490,343.055 268.809,342.795 268.400 C 342.584 268.070,342.409 267.275,342.406 266.633 C 342.398 265.086,342.629 265.423,342.932 267.400 M211.351 270.144 C 211.475 270.991,212.828 272.430,213.253 272.167 C 213.444 272.049,213.600 272.143,213.600 272.376 C 213.600 272.609,213.735 272.772,213.900 272.738 C 214.065 272.703,214.650 272.872,215.200 273.112 C 215.940 273.436,216.015 273.556,215.487 273.575 C 213.458 273.647,209.902 270.729,210.615 269.576 C 210.931 269.065,211.226 269.293,211.351 270.144 M219.800 273.632 C 219.263 273.885,219.967 273.932,221.941 273.776 C 223.982 273.615,224.801 273.675,224.617 273.972 C 224.313 274.464,221.592 274.523,218.400 274.106 L 216.200 273.818 217.800 273.566 C 220.198 273.188,220.710 273.205,219.800 273.632 M227.615 290.618 C 227.897 290.958,228.379 291.140,228.685 291.023 C 228.991 290.905,229.132 290.987,228.997 291.205 C 228.863 291.422,228.901 291.600,229.083 291.600 C 229.264 291.600,229.747 292.545,230.157 293.700 C 231.820 298.389,235.395 301.942,239.737 303.225 C 240.896 303.567,241.620 304.033,241.747 304.520 C 241.857 304.938,242.136 305.163,242.368 305.019 C 242.628 304.859,242.696 305.005,242.546 305.396 C 242.325 305.972,242.235 305.974,241.619 305.417 C 241.244 305.078,240.745 304.800,240.511 304.800 C 235.519 304.800,230.150 299.866,228.792 294.033 C 228.466 292.632,227.918 291.540,227.244 290.945 C 226.670 290.439,226.403 290.020,226.651 290.013 C 226.899 290.006,227.333 290.278,227.615 290.618 M231.926 292.031 C 233.022 294.859,237.017 299.103,240.000 300.606 C 241.530 301.377,241.988 301.883,241.988 302.800 C 241.988 303.169,241.875 303.239,241.694 302.981 C 241.532 302.751,240.320 302.041,239.000 301.404 C 236.001 299.956,233.266 297.188,231.825 294.142 C 231.216 292.854,230.511 291.653,230.259 291.474 C 230.006 291.294,230.250 291.273,230.800 291.427 C 231.350 291.580,231.857 291.852,231.926 292.031 M73.883 301.295 C 73.787 301.793,73.705 301.480,73.701 300.600 C 73.696 299.720,73.775 299.313,73.875 299.695 C 73.975 300.078,73.979 300.798,73.883 301.295 M73.624 307.257 L 73.203 308.600 73.401 307.250 C 73.511 306.507,73.627 305.428,73.660 304.850 L 73.720 303.800 73.882 304.857 C 73.972 305.439,73.855 306.519,73.624 307.257 M255.500 308.224 C 258.374 308.479,258.400 308.492,258.400 309.641 C 258.400 311.108,258.037 311.100,256.600 309.600 C 255.602 308.558,255.157 308.396,253.225 308.372 C 252.001 308.356,250.640 308.177,250.200 307.973 C 249.605 307.698,249.810 307.649,251.000 307.785 C 251.880 307.885,253.905 308.083,255.500 308.224 M389.699 308.500 C 389.480 308.775,389.171 309.893,389.013 310.984 C 388.043 317.676,383.358 322.285,377.389 322.418 C 376.955 322.427,375.925 322.676,375.100 322.970 C 374.275 323.265,373.600 323.390,373.600 323.249 C 373.600 322.730,375.400 321.894,378.163 321.128 C 383.899 319.538,386.711 316.566,388.012 310.718 C 388.334 309.270,388.753 308.373,389.160 308.264 C 389.512 308.170,389.867 308.072,389.949 308.046 C 390.031 308.021,389.919 308.225,389.699 308.500 M73.600 311.080 C 73.600 311.884,73.484 312.044,73.147 311.707 C 72.898 311.458,72.802 310.972,72.934 310.627 C 73.301 309.673,73.600 309.877,73.600 311.080 M259.160 312.500 C 259.079 315.134,258.483 315.963,258.440 313.500 C 258.417 312.207,258.575 311.200,258.800 311.200 C 259.020 311.200,259.182 311.785,259.160 312.500 M73.200 313.624 C 73.200 314.077,73.020 314.336,72.800 314.200 C 72.580 314.064,72.400 313.693,72.400 313.376 C 72.400 313.059,72.580 312.800,72.800 312.800 C 73.020 312.800,73.200 313.171,73.200 313.624 M384.861 315.300 C 384.412 316.015,383.449 317.050,382.722 317.600 C 381.641 318.418,381.764 318.185,383.400 316.322 C 385.708 313.694,385.999 313.490,384.861 315.300 M72.800 315.545 C 72.800 318.210,69.477 321.834,66.323 322.610 C 64.244 323.122,64.234 322.298,66.309 321.524 C 68.724 320.623,70.949 318.332,71.636 316.038 C 72.109 314.458,72.800 314.166,72.800 315.545 M9.944 317.200 C 9.944 317.578,9.817 317.504,9.600 317.000 C 9.411 316.560,9.256 315.930,9.256 315.600 C 9.256 315.222,9.383 315.296,9.600 315.800 C 9.789 316.240,9.944 316.870,9.944 317.200 M259.360 317.160 C 259.213 318.077,259.010 318.743,258.907 318.640 C 258.804 318.538,258.846 317.710,259.000 316.800 C 259.154 315.890,259.358 315.224,259.453 315.320 C 259.548 315.415,259.507 316.243,259.360 317.160 M69.602 319.927 C 68.606 320.977,68.482 321.219,69.173 320.771 C 69.998 320.235,71.591 318.346,71.149 318.427 C 71.067 318.443,70.371 319.118,69.602 319.927 M381.200 318.590 C 381.200 318.832,378.944 320.005,378.520 319.983 C 378.344 319.974,378.830 319.622,379.600 319.200 C 381.177 318.337,381.200 318.328,381.200 318.590 M261.004 321.675 C 262.207 322.621,262.347 323.414,261.204 322.802 C 260.362 322.352,259.183 320.395,259.225 319.520 C 259.239 319.234,259.421 319.425,259.629 319.946 C 259.838 320.466,260.456 321.244,261.004 321.675 M10.686 319.848 C 10.550 319.984,11.152 320.692,12.025 321.421 C 12.897 322.150,13.429 322.859,13.206 322.997 C 12.982 323.134,12.800 323.046,12.800 322.800 C 12.800 322.554,12.636 322.454,12.436 322.577 C 12.056 322.812,10.000 320.611,10.000 319.969 C 10.000 319.766,10.210 319.600,10.467 319.600 C 10.723 319.600,10.822 319.711,10.686 319.848 M64.200 322.800 C 64.336 323.020,64.077 323.200,63.624 323.200 C 63.171 323.200,62.800 323.020,62.800 322.800 C 62.800 322.580,63.059 322.400,63.376 322.400 C 63.693 322.400,64.064 322.580,64.200 322.800 M61.800 323.200 C 61.941 323.428,61.596 323.600,61.000 323.600 C 60.404 323.600,60.059 323.428,60.200 323.200 C 60.336 322.980,60.696 322.800,61.000 322.800 C 61.304 322.800,61.664 322.980,61.800 323.200 " stroke="none" fill="#268bd2" fill-rule="evenodd"></path><path id="path3" d="M42.112 58.695 C 43.164 58.777,44.784 58.776,45.712 58.692 C 46.640 58.608,45.780 58.541,43.800 58.542 C 41.820 58.543,41.060 58.612,42.112 58.695 M177.300 58.676 C 177.685 58.776,178.315 58.776,178.700 58.676 C 179.085 58.575,178.770 58.493,178.000 58.493 C 177.230 58.493,176.915 58.575,177.300 58.676 M295.300 58.697 C 296.785 58.774,299.215 58.774,300.700 58.697 C 302.185 58.620,300.970 58.557,298.000 58.557 C 295.030 58.557,293.815 58.620,295.300 58.697 M336.082 58.696 C 337.558 58.773,340.078 58.773,341.682 58.697 C 343.287 58.621,342.080 58.558,339.000 58.558 C 335.920 58.557,334.607 58.619,336.082 58.696 M201.252 62.002 C 202.750 62.794,204.800 64.929,204.800 65.697 C 204.800 65.937,204.916 66.017,205.058 65.876 C 205.792 65.141,201.577 61.144,200.146 61.218 C 199.955 61.227,200.453 61.581,201.252 62.002 M383.000 62.663 C 384.704 63.558,386.664 65.507,387.227 66.865 C 387.491 67.504,387.787 67.947,387.883 67.850 C 388.716 67.017,383.705 61.939,382.126 62.016 C 381.947 62.025,382.340 62.316,383.000 62.663 M15.645 63.367 C 14.281 64.373,12.400 66.675,12.400 67.338 C 12.400 67.548,12.933 66.984,13.584 66.085 C 14.236 65.186,15.448 63.989,16.277 63.425 C 17.107 62.861,17.599 62.400,17.371 62.400 C 17.142 62.400,16.366 62.835,15.645 63.367 M235.131 82.700 C 233.541 84.014,232.542 85.114,231.952 86.200 C 231.713 86.640,232.083 86.332,232.775 85.516 C 233.466 84.700,234.696 83.485,235.507 82.816 C 236.318 82.147,236.865 81.600,236.722 81.600 C 236.579 81.600,235.863 82.095,235.131 82.700 M8.893 87.600 C 8.893 88.370,8.975 88.685,9.076 88.300 C 9.176 87.915,9.176 87.285,9.076 86.900 C 8.975 86.515,8.893 86.830,8.893 87.600 M203.096 93.947 C 201.521 98.383,198.873 101.076,194.200 102.995 C 192.880 103.537,192.075 103.985,192.411 103.991 C 196.289 104.051,204.921 95.364,203.932 92.397 C 203.856 92.169,203.480 92.866,203.096 93.947 M212.213 112.213 C 211.436 112.991,210.801 113.846,210.803 114.113 C 210.804 114.381,211.145 114.085,211.559 113.457 C 211.974 112.828,212.828 111.974,213.457 111.559 C 214.085 111.145,214.381 110.804,214.113 110.803 C 213.846 110.801,212.991 111.436,212.213 112.213 M300.975 116.668 C 300.359 117.476,300.059 118.011,300.309 117.856 C 300.821 117.540,302.553 115.200,302.275 115.200 C 302.176 115.200,301.591 115.861,300.975 116.668 M362.828 142.846 C 362.657 146.761,370.487 154.214,374.515 153.971 C 374.782 153.955,374.077 153.613,372.948 153.211 C 368.101 151.487,365.210 148.590,363.380 143.622 C 363.092 142.840,362.844 142.491,362.828 142.846 M208.562 164.600 C 208.562 168.120,208.624 169.506,208.698 167.681 C 208.772 165.856,208.772 162.976,208.697 161.281 C 208.622 159.586,208.561 161.080,208.562 164.600 M188.629 197.029 C 188.481 197.615,188.438 198.172,188.532 198.266 C 188.627 198.360,188.824 197.958,188.971 197.371 C 189.119 196.785,189.162 196.228,189.068 196.134 C 188.973 196.040,188.776 196.442,188.629 197.029 M187.635 199.887 C 186.979 201.433,185.973 202.571,184.202 203.773 C 182.550 204.894,182.610 205.128,184.320 204.238 C 186.058 203.334,188.889 199.556,188.283 198.950 C 188.187 198.853,187.895 199.275,187.635 199.887 M208.563 218.400 C 208.563 222.030,208.623 223.515,208.698 221.700 C 208.772 219.885,208.772 216.915,208.698 215.100 C 208.623 213.285,208.563 214.770,208.563 218.400 M367.000 229.464 C 365.399 230.306,363.658 231.953,362.964 233.280 C 361.991 235.143,362.349 235.038,363.578 233.099 C 364.351 231.881,365.487 230.822,366.878 230.024 C 369.056 228.775,369.153 228.331,367.000 229.464 M229.401 292.600 C 229.825 294.825,231.996 298.703,233.656 300.203 C 235.260 301.652,239.455 303.878,239.846 303.487 C 239.953 303.380,239.447 303.087,238.720 302.836 C 234.977 301.541,231.880 298.245,230.042 293.600 C 229.564 292.390,229.275 291.940,229.401 292.600 M73.701 300.600 C 73.705 301.480,73.787 301.793,73.883 301.295 C 73.979 300.798,73.975 300.078,73.875 299.695 C 73.775 299.313,73.696 299.720,73.701 300.600 M8.924 305.000 C 8.926 306.320,9.001 306.812,9.090 306.093 C 9.179 305.374,9.177 304.294,9.086 303.693 C 8.995 303.092,8.922 303.680,8.924 305.000 M388.062 310.462 C 387.800 311.594,387.659 312.593,387.748 312.681 C 387.837 312.770,388.130 311.924,388.400 310.800 C 388.670 309.676,388.811 308.677,388.713 308.580 C 388.616 308.483,388.323 309.330,388.062 310.462 M386.659 314.650 C 385.204 317.840,382.746 319.770,378.471 321.080 C 376.782 321.598,376.105 321.913,376.967 321.780 C 382.019 321.002,388.355 316.064,387.518 313.555 C 387.435 313.305,387.048 313.797,386.659 314.650 M71.657 315.967 C 70.960 318.294,68.752 320.601,66.268 321.598 C 65.089 322.071,64.716 322.327,65.400 322.194 C 68.542 321.580,73.002 316.805,72.326 314.778 C 72.235 314.506,71.934 315.041,71.657 315.967 M11.887 321.609 C 12.595 322.351,13.242 322.878,13.325 322.779 C 13.408 322.681,12.829 322.073,12.038 321.429 L 10.600 320.258 11.887 321.609 M281.500 324.682 C 281.995 324.778,282.805 324.778,283.300 324.682 C 283.795 324.587,283.390 324.509,282.400 324.509 C 281.410 324.509,281.005 324.587,281.500 324.682 M357.500 324.682 C 357.995 324.778,358.805 324.778,359.300 324.682 C 359.795 324.587,359.390 324.509,358.400 324.509 C 357.410 324.509,357.005 324.587,357.500 324.682 " stroke="none" fill="#55aaff" fill-rule="evenodd"></path><path id="path4" d="M29.100 58.682 C 29.595 58.778,30.405 58.778,30.900 58.682 C 31.395 58.587,30.990 58.509,30.000 58.509 C 29.010 58.509,28.605 58.587,29.100 58.682 M187.905 58.683 C 188.402 58.779,189.122 58.775,189.505 58.675 C 189.887 58.575,189.480 58.496,188.600 58.501 C 187.720 58.505,187.407 58.587,187.905 58.683 M269.900 58.693 C 270.835 58.777,272.365 58.777,273.300 58.693 C 274.235 58.609,273.470 58.540,271.600 58.540 C 269.730 58.540,268.965 58.609,269.900 58.693 M366.300 58.689 C 367.015 58.778,368.185 58.778,368.900 58.689 C 369.615 58.601,369.030 58.528,367.600 58.528 C 366.170 58.528,365.585 58.601,366.300 58.689 M23.400 59.076 C 12.358 59.805,10.409 61.054,9.620 67.908 C 9.097 72.444,8.712 78.222,8.947 77.986 C 9.059 77.874,9.339 75.626,9.567 72.991 C 10.488 62.388,12.293 60.475,22.167 59.642 C 24.284 59.464,26.132 59.201,26.275 59.059 C 26.417 58.916,26.278 58.832,25.967 58.872 C 25.655 58.912,24.500 59.004,23.400 59.076 M193.111 59.093 C 194.051 59.178,195.491 59.177,196.311 59.091 C 197.130 59.005,196.360 58.936,194.600 58.937 C 192.840 58.939,192.170 59.009,193.111 59.093 M199.889 59.605 C 204.547 60.285,206.446 62.374,207.156 67.600 L 207.564 70.600 207.396 67.321 C 207.079 61.120,205.092 59.117,199.400 59.260 C 197.889 59.298,197.916 59.317,199.889 59.605 M260.356 59.465 C 259.716 59.636,258.607 61.540,258.949 61.882 C 259.047 61.980,259.251 61.671,259.402 61.195 C 259.553 60.719,260.244 60.082,260.938 59.780 C 262.123 59.265,261.787 59.082,260.356 59.465 M378.000 59.450 C 387.728 60.542,389.389 62.051,390.401 70.719 L 390.760 73.800 390.587 70.000 C 390.206 61.657,388.353 59.772,380.200 59.440 C 378.220 59.359,377.230 59.364,378.000 59.450 M207.748 75.600 C 207.748 77.910,207.814 78.855,207.895 77.700 C 207.976 76.545,207.976 74.655,207.895 73.500 C 207.814 72.345,207.748 73.290,207.748 75.600 M393.715 75.496 C 394.988 75.576,396.968 75.575,398.115 75.494 C 399.262 75.414,398.220 75.349,395.800 75.350 C 393.380 75.351,392.442 75.416,393.715 75.496 M242.233 75.947 C 242.114 76.138,240.889 76.420,239.509 76.573 C 230.232 77.601,228.089 79.667,226.614 89.000 C 226.336 90.760,225.975 92.560,225.812 93.000 C 225.649 93.440,225.863 93.260,226.288 92.600 C 226.713 91.940,227.288 90.238,227.567 88.818 C 229.059 81.202,231.680 78.714,239.600 77.397 C 241.190 77.133,243.986 75.600,242.878 75.600 C 242.641 75.600,242.351 75.756,242.233 75.947 M207.270 84.200 C 207.229 85.520,206.929 88.400,206.603 90.600 C 204.908 102.044,203.305 104.182,195.188 105.826 C 193.349 106.199,191.295 106.760,190.622 107.074 C 189.680 107.513,189.629 107.584,190.400 107.384 C 190.950 107.241,192.660 106.957,194.200 106.752 C 201.675 105.759,204.300 104.029,205.777 99.127 C 206.527 96.636,207.690 86.259,207.497 83.773 C 207.345 81.813,207.344 81.815,207.270 84.200 M8.546 86.600 C 8.547 88.800,8.614 89.649,8.695 88.487 C 8.776 87.324,8.776 85.524,8.693 84.487 C 8.611 83.449,8.545 84.400,8.546 86.600 M225.293 96.000 C 225.293 96.770,225.375 97.085,225.476 96.700 C 225.576 96.315,225.576 95.685,225.476 95.300 C 225.375 94.915,225.293 95.230,225.293 96.000 M187.300 107.876 C 187.685 107.976,188.315 107.976,188.700 107.876 C 189.085 107.775,188.770 107.693,188.000 107.693 C 187.230 107.693,186.915 107.775,187.300 107.876 M100.531 108.300 C 114.793 108.358,138.013 108.358,152.131 108.300 C 166.249 108.242,154.580 108.194,126.200 108.194 C 97.820 108.194,86.269 108.242,100.531 108.300 M313.323 108.299 C 316.141 108.368,320.641 108.368,323.323 108.299 C 326.005 108.230,323.700 108.173,318.200 108.173 C 312.700 108.174,310.505 108.230,313.323 108.299 M306.800 108.623 C 306.800 117.468,302.936 121.972,294.325 123.163 C 292.853 123.366,291.323 123.741,290.925 123.997 C 290.326 124.380,290.317 124.424,290.873 124.253 C 291.243 124.139,292.683 123.933,294.073 123.795 C 302.464 122.961,304.787 121.613,306.139 116.791 C 306.801 114.434,307.453 108.400,307.047 108.400 C 306.911 108.400,306.800 108.501,306.800 108.623 M213.433 109.224 C 210.128 109.777,208.672 112.441,208.854 117.600 C 208.881 118.370,209.070 117.666,209.274 116.037 C 209.916 110.912,210.912 109.916,216.037 109.274 C 218.203 109.003,218.516 108.902,217.200 108.899 C 216.210 108.896,214.515 109.042,213.433 109.224 M342.416 120.674 C 342.352 122.612,344.595 124.461,346.887 124.360 C 347.455 124.335,347.207 124.181,346.231 123.952 C 344.326 123.505,343.638 122.969,342.954 121.400 C 342.667 120.740,342.424 120.413,342.416 120.674 M350.300 124.689 C 351.015 124.778,352.185 124.778,352.900 124.689 C 353.615 124.601,353.030 124.528,351.600 124.528 C 350.170 124.528,349.585 124.601,350.300 124.689 M74.583 141.600 C 74.583 150.950,74.636 154.775,74.700 150.100 C 74.764 145.425,74.764 137.775,74.700 133.100 C 74.636 128.425,74.583 132.250,74.583 141.600 M208.540 128.400 C 208.540 130.270,208.609 131.035,208.693 130.100 C 208.777 129.165,208.777 127.635,208.693 126.700 C 208.609 125.765,208.540 126.530,208.540 128.400 M358.528 133.200 C 358.528 134.630,358.601 135.215,358.689 134.500 C 358.778 133.785,358.778 132.615,358.689 131.900 C 358.601 131.185,358.528 131.770,358.528 133.200 M359.360 140.958 C 359.503 141.375,359.800 142.995,360.022 144.558 C 361.286 153.483,363.417 155.550,372.600 156.757 C 374.140 156.959,375.850 157.241,376.400 157.384 C 377.183 157.588,377.137 157.521,376.188 157.078 C 375.522 156.767,373.753 156.300,372.258 156.039 C 364.659 154.716,361.929 152.046,360.732 144.764 C 360.464 143.134,359.987 141.440,359.673 141.000 C 359.150 140.268,359.124 140.265,359.360 140.958 M274.531 148.200 C 274.533 149.740,274.605 150.321,274.692 149.491 C 274.779 148.661,274.777 147.401,274.689 146.691 C 274.600 145.981,274.529 146.660,274.531 148.200 M274.000 153.346 C 274.000 154.834,273.026 157.030,272.137 157.547 C 271.732 157.783,271.625 157.981,271.900 157.988 C 273.238 158.020,275.194 153.461,274.248 152.515 C 274.112 152.378,274.000 152.752,274.000 153.346 M378.705 157.883 C 379.202 157.979,379.922 157.975,380.305 157.875 C 380.687 157.775,380.280 157.696,379.400 157.701 C 378.520 157.705,378.207 157.787,378.705 157.883 M268.820 161.359 C 266.918 165.344,264.829 167.388,260.990 169.019 C 258.543 170.059,257.355 171.162,259.300 170.588 C 265.162 168.859,267.877 166.328,270.183 160.443 C 271.589 156.855,270.677 157.468,268.820 161.359 M163.091 158.689 C 163.801 158.777,165.061 158.779,165.891 158.692 C 166.721 158.605,166.140 158.533,164.600 158.531 C 163.060 158.529,162.381 158.600,163.091 158.689 M173.400 159.678 C 173.840 159.927,174.332 160.327,174.494 160.566 C 174.696 160.865,174.790 160.849,174.794 160.514 C 174.797 160.247,174.452 159.842,174.026 159.614 C 172.974 159.051,172.397 159.109,173.400 159.678 M177.200 161.937 C 183.824 163.790,186.225 166.194,188.048 172.797 C 188.444 174.229,189.048 176.390,189.392 177.600 C 189.736 178.810,190.183 181.600,190.386 183.800 L 190.755 187.800 190.569 183.282 C 190.460 180.622,190.127 178.072,189.759 177.082 C 189.415 176.157,188.900 174.478,188.615 173.352 C 186.608 165.430,183.453 162.399,176.200 161.424 C 175.133 161.281,175.466 161.452,177.200 161.937 M190.931 191.400 C 190.933 192.940,191.005 193.521,191.092 192.691 C 191.179 191.861,191.177 190.601,191.089 189.891 C 191.000 189.181,190.929 189.860,190.931 191.400 M190.336 197.226 C 189.723 204.269,187.396 206.378,179.394 207.147 C 176.209 207.453,176.064 207.498,178.123 207.546 C 187.857 207.772,191.265 204.696,190.725 196.168 C 190.612 194.391,190.574 194.494,190.336 197.226 M163.700 208.291 C 164.525 208.378,165.875 208.378,166.700 208.291 C 167.525 208.205,166.850 208.134,165.200 208.134 C 163.550 208.134,162.875 208.205,163.700 208.291 M74.594 256.200 C 74.594 282.600,74.641 293.459,74.700 280.331 C 74.758 267.203,74.758 245.603,74.700 232.331 C 74.641 219.059,74.594 229.800,74.594 256.200 M272.675 226.000 C 273.143 226.550,273.719 227.810,273.954 228.800 L 274.381 230.600 274.174 228.800 C 274.028 227.537,273.647 226.702,272.895 226.000 L 271.823 225.000 272.675 226.000 M369.991 226.016 C 361.180 226.802,360.003 228.177,359.226 238.586 C 358.835 243.830,358.935 246.036,359.370 241.734 C 360.653 229.019,361.861 227.484,371.415 226.419 C 377.972 225.687,376.941 225.395,369.991 226.016 M274.528 234.800 C 274.528 236.230,274.601 236.815,274.689 236.100 C 274.778 235.385,274.778 234.215,274.689 233.500 C 274.601 232.785,274.528 233.370,274.528 234.800 M358.531 249.800 C 358.533 251.340,358.605 251.921,358.692 251.091 C 358.779 250.261,358.777 249.001,358.689 248.291 C 358.600 247.581,358.529 248.260,358.531 249.800 M208.540 255.600 C 208.540 257.470,208.609 258.235,208.693 257.300 C 208.777 256.365,208.777 254.835,208.693 253.900 C 208.609 252.965,208.540 253.730,208.540 255.600 M354.100 258.691 C 354.925 258.778,356.275 258.778,357.100 258.691 C 357.925 258.605,357.250 258.534,355.600 258.534 C 353.950 258.534,353.275 258.605,354.100 258.691 M344.950 259.234 C 343.445 259.671,342.945 260.220,342.612 261.802 L 342.360 263.000 342.948 261.731 C 343.643 260.230,344.640 259.631,347.149 259.207 C 348.782 258.931,348.835 258.893,347.600 258.883 C 346.830 258.877,345.638 259.035,344.950 259.234 M291.507 259.624 C 291.668 259.762,293.330 260.095,295.200 260.364 C 302.877 261.470,305.202 263.889,306.460 272.080 C 307.100 276.240,307.403 274.759,306.845 270.201 C 305.897 262.451,303.543 260.366,294.959 259.675 C 292.899 259.509,291.346 259.486,291.507 259.624 M208.914 266.600 C 208.917 267.700,208.995 268.103,209.087 267.495 C 209.179 266.886,209.177 265.986,209.082 265.495 C 208.987 265.003,208.911 265.500,208.914 266.600 M209.241 269.513 C 209.171 271.066,210.289 273.178,211.407 273.603 C 212.984 274.202,213.584 274.049,212.131 273.417 C 210.794 272.835,210.050 271.784,209.571 269.800 C 209.338 268.831,209.274 268.775,209.241 269.513 M225.836 290.600 C 225.983 291.040,226.421 293.238,226.809 295.485 C 228.207 303.585,230.713 305.903,238.891 306.663 C 240.395 306.803,241.720 307.071,241.836 307.259 C 241.952 307.446,242.257 307.600,242.513 307.600 C 243.798 307.600,241.030 306.404,238.815 306.003 C 231.509 304.678,228.787 302.135,227.576 295.507 C 227.325 294.128,226.770 292.280,226.344 291.400 C 225.918 290.520,225.689 290.160,225.836 290.600 M8.561 306.000 C 8.561 309.410,8.622 310.805,8.697 309.100 C 8.772 307.395,8.772 304.605,8.697 302.900 C 8.622 301.195,8.561 302.590,8.561 306.000 M393.715 307.896 C 394.988 307.976,396.968 307.975,398.115 307.894 C 399.262 307.814,398.220 307.749,395.800 307.750 C 393.380 307.751,392.442 307.816,393.715 307.896 M74.067 311.000 C 73.754 321.299,71.299 323.754,61.000 324.067 C 58.833 324.133,58.775 324.155,60.400 324.300 C 65.808 324.782,71.540 323.253,72.872 320.973 C 73.667 319.611,74.543 313.127,74.300 310.400 C 74.155 308.775,74.133 308.833,74.067 311.000 M389.702 313.370 C 388.596 320.403,386.648 322.079,378.000 323.438 L 374.600 323.973 378.000 323.755 C 387.301 323.161,390.818 319.835,390.322 312.104 C 390.205 310.282,390.178 310.337,389.702 313.370 M8.901 318.200 C 8.905 319.080,8.987 319.393,9.083 318.895 C 9.179 318.398,9.175 317.678,9.075 317.295 C 8.975 316.913,8.896 317.320,8.901 318.200 M9.385 321.200 C 9.704 323.254,13.858 325.476,15.085 324.248 C 15.222 324.112,14.836 324.000,14.227 324.000 C 12.351 324.000,10.517 322.865,9.814 321.269 L 9.168 319.800 9.385 321.200 M258.825 321.526 C 258.753 323.034,260.835 324.461,262.960 324.360 C 263.422 324.338,263.094 324.154,262.231 323.952 C 260.442 323.532,259.653 322.979,259.181 321.814 C 258.999 321.366,258.839 321.237,258.825 321.526 M18.300 324.689 C 19.015 324.778,20.185 324.778,20.900 324.689 C 21.615 324.601,21.030 324.528,19.600 324.528 C 18.170 324.528,17.585 324.601,18.300 324.689 M266.100 324.687 C 266.705 324.778,267.695 324.778,268.300 324.687 C 268.905 324.595,268.410 324.520,267.200 324.520 C 265.990 324.520,265.495 324.595,266.100 324.687 M369.500 324.682 C 369.995 324.778,370.805 324.778,371.300 324.682 C 371.795 324.587,371.390 324.509,370.400 324.509 C 369.410 324.509,369.005 324.587,369.500 324.682 " stroke="none" fill="#00ffff" fill-rule="evenodd"></path></g></svg>