<svg id="svg" version="1.1" width="400" height="400" xmlns="http://www.w3.org/2000/svg" xmlns:xlink="http://www.w3.org/1999/xlink" style="display: block;"><g id="svgg"><path id="path0" d="M0.000 208.390 L 0.000 341.600 19.900 341.577 C 42.583 341.551,53.297 341.178,55.036 340.353 C 57.994 338.949,57.787 343.240,57.912 280.720 L 58.024 224.839 113.112 224.703 C 178.179 224.543,172.877 224.983,174.066 219.647 C 175.210 214.515,174.319 188.019,172.829 182.886 C 171.763 179.213,169.450 177.466,164.762 176.794 C 163.133 176.561,160.336 176.107,158.547 175.785 C 155.810 175.293,147.584 175.200,106.647 175.200 L 58.000 175.200 58.000 162.065 C 58.000 154.841,58.119 143.501,58.265 136.865 L 58.529 124.800 115.314 124.800 C 185.824 124.800,187.077 124.724,189.306 120.324 C 191.455 116.081,192.235 81.536,190.268 77.731 C 188.995 75.270,195.349 75.429,93.300 75.299 L 0.000 75.180 0.000 208.390 M243.684 75.652 C 242.948 75.864,242.186 76.432,241.954 76.942 C 241.641 77.627,240.978 77.970,239.269 78.328 C 232.861 79.669,229.192 83.508,228.162 89.950 C 227.870 91.773,226.922 92.086,219.474 92.816 C 209.862 93.757,208.988 95.725,208.519 117.500 L 208.352 125.200 203.476 125.202 C 197.357 125.205,194.020 125.714,193.148 126.776 C 192.002 128.172,191.891 130.808,191.643 162.577 L 191.400 193.753 188.725 194.247 C 179.002 196.040,175.067 203.770,178.403 214.525 C 179.883 219.299,182.500 221.262,188.977 222.455 L 191.600 222.938 191.629 247.569 C 191.658 272.274,192.025 288.383,192.591 289.711 C 193.055 290.799,194.180 291.228,197.238 291.485 C 200.005 291.716,200.047 291.737,200.999 293.360 C 202.131 295.288,204.795 297.917,206.872 299.154 L 208.344 300.031 208.524 303.515 C 209.507 322.586,209.772 323.015,221.320 324.180 C 227.757 324.830,228.000 324.895,228.000 325.981 C 228.000 331.527,232.453 336.682,238.553 338.202 C 240.703 338.737,241.664 339.171,241.825 339.680 C 242.383 341.436,241.093 341.394,298.000 341.528 C 362.329 341.680,369.533 341.437,372.138 339.022 C 373.532 337.731,373.993 335.773,374.273 329.959 L 374.516 324.919 381.000 324.689 C 391.118 324.330,390.938 324.523,391.432 313.500 L 391.697 307.600 395.848 307.600 L 400.000 307.600 400.000 274.600 L 400.000 241.600 382.300 241.602 C 364.324 241.604,351.092 242.069,347.312 242.831 C 342.789 243.743,342.523 244.687,341.912 262.062 L 341.452 275.125 334.426 275.290 C 325.334 275.504,325.200 275.581,325.200 280.577 L 325.200 283.117 323.231 284.380 C 320.997 285.813,318.379 288.507,317.424 290.354 L 316.779 291.600 304.026 291.600 L 291.272 291.600 291.020 288.100 C 290.278 277.777,289.428 276.689,281.553 275.976 C 279.049 275.749,276.077 275.472,274.949 275.359 L 272.897 275.155 272.623 273.089 C 271.630 265.603,268.779 262.470,261.600 260.973 C 259.960 260.631,258.578 260.311,258.528 260.261 C 258.479 260.212,258.325 256.578,258.187 252.186 C 258.034 247.349,257.721 243.490,257.393 242.400 C 257.095 241.410,256.656 239.160,256.419 237.400 C 255.423 230.021,252.657 227.598,244.100 226.610 L 241.600 226.321 241.600 208.216 L 241.600 190.110 244.700 189.611 C 252.424 188.367,255.312 185.545,256.237 178.334 C 256.388 177.160,256.846 175.338,257.256 174.285 C 257.810 172.859,258.011 171.227,258.042 167.885 C 258.066 165.418,258.201 161.790,258.342 159.822 L 258.600 156.244 261.275 155.752 C 268.309 154.458,271.300 151.457,272.465 144.525 C 273.027 141.175,272.270 141.515,280.800 140.783 C 289.585 140.029,290.224 139.260,291.013 128.500 L 291.285 124.800 303.942 124.808 L 316.600 124.816 317.800 126.847 C 319.145 129.123,321.151 131.088,323.528 132.456 L 325.123 133.374 325.264 136.475 C 325.478 141.177,326.284 141.533,336.837 141.579 L 341.474 141.600 341.736 148.900 C 342.428 168.123,343.382 172.064,347.617 173.204 C 351.762 174.321,361.659 174.798,380.700 174.799 L 400.000 174.800 400.000 142.000 L 400.000 109.200 395.861 109.200 L 391.723 109.200 391.447 102.700 C 390.992 91.964,391.329 92.324,381.500 92.083 C 375.615 91.939,374.798 91.839,374.786 91.260 C 374.486 77.227,373.838 76.225,364.658 75.591 C 357.561 75.101,245.398 75.157,243.684 75.652 " stroke="none" fill="#000000" fill-rule="evenodd"></path><path id="path1" d="M0.000 208.390 L 0.000 341.600 19.900 341.577 C 42.583 341.551,53.297 341.178,55.036 340.353 C 57.994 338.949,57.787 343.240,57.912 280.720 L 58.024 224.839 113.112 224.703 C 178.179 224.543,172.877 224.983,174.066 219.647 C 175.210 214.515,174.319 188.019,172.829 182.886 C 171.763 179.213,169.450 177.466,164.762 176.794 C 163.133 176.561,160.336 176.107,158.547 175.785 C 155.810 175.293,147.584 175.200,106.647 175.200 L 58.000 175.200 58.000 162.065 C 58.000 154.841,58.119 143.501,58.265 136.865 L 58.529 124.800 115.314 124.800 C 185.824 124.800,187.077 124.724,189.306 120.324 C 191.455 116.081,192.235 81.536,190.268 77.731 C 188.995 75.270,195.349 75.429,93.300 75.299 L 0.000 75.180 0.000 208.390 M243.684 75.652 C 242.948 75.864,242.186 76.432,241.954 76.942 C 241.641 77.627,240.978 77.970,239.269 78.328 C 232.861 79.669,229.192 83.508,228.162 89.950 C 227.870 91.773,226.922 92.086,219.474 92.816 C 209.862 93.757,208.988 95.725,208.519 117.500 L 208.352 125.200 203.476 125.202 C 197.357 125.205,194.020 125.714,193.148 126.776 C 192.002 128.172,191.891 130.808,191.643 162.577 L 191.400 193.753 188.725 194.247 C 179.002 196.040,175.067 203.770,178.403 214.525 C 179.883 219.299,182.500 221.262,188.977 222.455 L 191.600 222.938 191.629 247.569 C 191.658 272.274,192.025 288.383,192.591 289.711 C 193.055 290.799,194.180 291.228,197.238 291.485 C 200.005 291.716,200.047 291.737,200.999 293.360 C 202.131 295.288,204.795 297.917,206.872 299.154 L 208.344 300.031 208.524 303.515 C 209.507 322.586,209.772 323.015,221.320 324.180 C 227.757 324.830,228.000 324.895,228.000 325.981 C 228.000 331.527,232.453 336.682,238.553 338.202 C 240.703 338.737,241.664 339.171,241.825 339.680 C 242.383 341.436,241.093 341.394,298.000 341.528 C 362.329 341.680,369.533 341.437,372.138 339.022 C 373.532 337.731,373.993 335.773,374.273 329.959 L 374.516 324.919 381.000 324.689 C 391.118 324.330,390.938 324.523,391.432 313.500 L 391.697 307.600 395.848 307.600 L 400.000 307.600 400.000 274.600 L 400.000 241.600 382.300 241.602 C 364.324 241.604,351.092 242.069,347.312 242.831 C 342.789 243.743,342.523 244.687,341.912 262.062 L 341.452 275.125 334.426 275.290 C 325.334 275.504,325.200 275.581,325.200 280.577 L 325.200 283.117 323.231 284.380 C 320.997 285.813,318.379 288.507,317.424 290.354 L 316.779 291.600 304.026 291.600 L 291.272 291.600 291.020 288.100 C 290.278 277.777,289.428 276.689,281.553 275.976 C 279.049 275.749,276.077 275.472,274.949 275.359 L 272.897 275.155 272.623 273.089 C 271.630 265.603,268.779 262.470,261.600 260.973 C 259.960 260.631,258.578 260.311,258.528 260.261 C 258.479 260.212,258.325 256.578,258.187 252.186 C 258.034 247.349,257.721 243.490,257.393 242.400 C 257.095 241.410,256.656 239.160,256.419 237.400 C 255.423 230.021,252.657 227.598,244.100 226.610 L 241.600 226.321 241.600 208.216 L 241.600 190.110 244.700 189.611 C 252.424 188.367,255.312 185.545,256.237 178.334 C 256.388 177.160,256.846 175.338,257.256 174.285 C 257.810 172.859,258.011 171.227,258.042 167.885 C 258.066 165.418,258.201 161.790,258.342 159.822 L 258.600 156.244 261.275 155.752 C 268.309 154.458,271.300 151.457,272.465 144.525 C 273.027 141.175,272.270 141.515,280.800 140.783 C 289.585 140.029,290.224 139.260,291.013 128.500 L 291.285 124.800 303.942 124.808 L 316.600 124.816 317.800 126.847 C 319.145 129.123,321.151 131.088,323.528 132.456 L 325.123 133.374 325.264 136.475 C 325.478 141.177,326.284 141.533,336.837 141.579 L 341.474 141.600 341.736 148.900 C 342.428 168.123,343.382 172.064,347.617 173.204 C 351.762 174.321,361.659 174.798,380.700 174.799 L 400.000 174.800 400.000 142.000 L 400.000 109.200 395.861 109.200 L 391.723 109.200 391.447 102.700 C 390.992 91.964,391.329 92.324,381.500 92.083 C 375.615 91.939,374.798 91.839,374.786 91.260 C 374.486 77.227,373.838 76.225,364.658 75.591 C 357.561 75.101,245.398 75.157,243.684 75.652 " stroke="none" fill="#000000" fill-rule="evenodd"></path><path id="path2" d="M0.000 208.390 L 0.000 341.600 19.900 341.577 C 42.583 341.551,53.297 341.178,55.036 340.353 C 57.994 338.949,57.787 343.240,57.912 280.720 L 58.024 224.839 113.112 224.703 C 178.179 224.543,172.877 224.983,174.066 219.647 C 175.210 214.515,174.319 188.019,172.829 182.886 C 171.763 179.213,169.450 177.466,164.762 176.794 C 163.133 176.561,160.336 176.107,158.547 175.785 C 155.810 175.293,147.584 175.200,106.647 175.200 L 58.000 175.200 58.000 162.065 C 58.000 154.841,58.119 143.501,58.265 136.865 L 58.529 124.800 115.314 124.800 C 185.824 124.800,187.077 124.724,189.306 120.324 C 191.455 116.081,192.235 81.536,190.268 77.731 C 188.995 75.270,195.349 75.429,93.300 75.299 L 0.000 75.180 0.000 208.390 M243.684 75.652 C 242.948 75.864,242.186 76.432,241.954 76.942 C 241.641 77.627,240.978 77.970,239.269 78.328 C 232.861 79.669,229.192 83.508,228.162 89.950 C 227.870 91.773,226.922 92.086,219.474 92.816 C 209.862 93.757,208.988 95.725,208.519 117.500 L 208.352 125.200 203.476 125.202 C 197.357 125.205,194.020 125.714,193.148 126.776 C 192.002 128.172,191.891 130.808,191.643 162.577 L 191.400 193.753 188.725 194.247 C 179.002 196.040,175.067 203.770,178.403 214.525 C 179.883 219.299,182.500 221.262,188.977 222.455 L 191.600 222.938 191.629 247.569 C 191.658 272.274,192.025 288.383,192.591 289.711 C 193.055 290.799,194.180 291.228,197.238 291.485 C 200.005 291.716,200.047 291.737,200.999 293.360 C 202.131 295.288,204.795 297.917,206.872 299.154 L 208.344 300.031 208.524 303.515 C 209.507 322.586,209.772 323.015,221.320 324.180 C 227.757 324.830,228.000 324.895,228.000 325.981 C 228.000 331.527,232.453 336.682,238.553 338.202 C 240.703 338.737,241.664 339.171,241.825 339.680 C 242.383 341.436,241.093 341.394,298.000 341.528 C 362.329 341.680,369.533 341.437,372.138 339.022 C 373.532 337.731,373.993 335.773,374.273 329.959 L 374.516 324.919 381.000 324.689 C 391.118 324.330,390.938 324.523,391.432 313.500 L 391.697 307.600 395.848 307.600 L 400.000 307.600 400.000 274.600 L 400.000 241.600 382.300 241.602 C 364.324 241.604,351.092 242.069,347.312 242.831 C 342.789 243.743,342.523 244.687,341.912 262.062 L 341.452 275.125 334.426 275.290 C 325.334 275.504,325.200 275.581,325.200 280.577 L 325.200 283.117 323.231 284.380 C 320.997 285.813,318.379 288.507,317.424 290.354 L 316.779 291.600 304.026 291.600 L 291.272 291.600 291.020 288.100 C 290.278 277.777,289.428 276.689,281.553 275.976 C 279.049 275.749,276.077 275.472,274.949 275.359 L 272.897 275.155 272.623 273.089 C 271.630 265.603,268.779 262.470,261.600 260.973 C 259.960 260.631,258.578 260.311,258.528 260.261 C 258.479 260.212,258.325 256.578,258.187 252.186 C 258.034 247.349,257.721 243.490,257.393 242.400 C 257.095 241.410,256.656 239.160,256.419 237.400 C 255.423 230.021,252.657 227.598,244.100 226.610 L 241.600 226.321 241.600 208.216 L 241.600 190.110 244.700 189.611 C 252.424 188.367,255.312 185.545,256.237 178.334 C 256.388 177.160,256.846 175.338,257.256 174.285 C 257.810 172.859,258.011 171.227,258.042 167.885 C 258.066 165.418,258.201 161.790,258.342 159.822 L 258.600 156.244 261.275 155.752 C 268.309 154.458,271.300 151.457,272.465 144.525 C 273.027 141.175,272.270 141.515,280.800 140.783 C 289.585 140.029,290.224 139.260,291.013 128.500 L 291.285 124.800 303.942 124.808 L 316.600 124.816 317.800 126.847 C 319.145 129.123,321.151 131.088,323.528 132.456 L 325.123 133.374 325.264 136.475 C 325.478 141.177,326.284 141.533,336.837 141.579 L 341.474 141.600 341.736 148.900 C 342.428 168.123,343.382 172.064,347.617 173.204 C 351.762 174.321,361.659 174.798,380.700 174.799 L 400.000 174.800 400.000 142.000 L 400.000 109.200 395.861 109.200 L 391.723 109.200 391.447 102.700 C 390.992 91.964,391.329 92.324,381.500 92.083 C 375.615 91.939,374.798 91.839,374.786 91.260 C 374.486 77.227,373.838 76.225,364.658 75.591 C 357.561 75.101,245.398 75.157,243.684 75.652 " stroke="none" fill="#000000" fill-rule="evenodd"></path><path id="path3" d="M0.000 208.390 L 0.000 341.600 19.900 341.577 C 42.583 341.551,53.297 341.178,55.036 340.353 C 57.994 338.949,57.787 343.240,57.912 280.720 L 58.024 224.839 113.112 224.703 C 178.179 224.543,172.877 224.983,174.066 219.647 C 175.210 214.515,174.319 188.019,172.829 182.886 C 171.763 179.213,169.450 177.466,164.762 176.794 C 163.133 176.561,160.336 176.107,158.547 175.785 C 155.810 175.293,147.584 175.200,106.647 175.200 L 58.000 175.200 58.000 162.065 C 58.000 154.841,58.119 143.501,58.265 136.865 L 58.529 124.800 115.314 124.800 C 185.824 124.800,187.077 124.724,189.306 120.324 C 191.455 116.081,192.235 81.536,190.268 77.731 C 188.995 75.270,195.349 75.429,93.300 75.299 L 0.000 75.180 0.000 208.390 M243.684 75.652 C 242.948 75.864,242.186 76.432,241.954 76.942 C 241.641 77.627,240.978 77.970,239.269 78.328 C 232.861 79.669,229.192 83.508,228.162 89.950 C 227.870 91.773,226.922 92.086,219.474 92.816 C 209.862 93.757,208.988 95.725,208.519 117.500 L 208.352 125.200 203.476 125.202 C 197.357 125.205,194.020 125.714,193.148 126.776 C 192.002 128.172,191.891 130.808,191.643 162.577 L 191.400 193.753 188.725 194.247 C 179.002 196.040,175.067 203.770,178.403 214.525 C 179.883 219.299,182.500 221.262,188.977 222.455 L 191.600 222.938 191.629 247.569 C 191.658 272.274,192.025 288.383,192.591 289.711 C 193.055 290.799,194.180 291.228,197.238 291.485 C 200.005 291.716,200.047 291.737,200.999 293.360 C 202.131 295.288,204.795 297.917,206.872 299.154 L 208.344 300.031 208.524 303.515 C 209.507 322.586,209.772 323.015,221.320 324.180 C 227.757 324.830,228.000 324.895,228.000 325.981 C 228.000 331.527,232.453 336.682,238.553 338.202 C 240.703 338.737,241.664 339.171,241.825 339.680 C 242.383 341.436,241.093 341.394,298.000 341.528 C 362.329 341.680,369.533 341.437,372.138 339.022 C 373.532 337.731,373.993 335.773,374.273 329.959 L 374.516 324.919 381.000 324.689 C 391.118 324.330,390.938 324.523,391.432 313.500 L 391.697 307.600 395.848 307.600 L 400.000 307.600 400.000 274.600 L 400.000 241.600 382.300 241.602 C 364.324 241.604,351.092 242.069,347.312 242.831 C 342.789 243.743,342.523 244.687,341.912 262.062 L 341.452 275.125 334.426 275.290 C 325.334 275.504,325.200 275.581,325.200 280.577 L 325.200 283.117 323.231 284.380 C 320.997 285.813,318.379 288.507,317.424 290.354 L 316.779 291.600 304.026 291.600 L 291.272 291.600 291.020 288.100 C 290.278 277.777,289.428 276.689,281.553 275.976 C 279.049 275.749,276.077 275.472,274.949 275.359 L 272.897 275.155 272.623 273.089 C 271.630 265.603,268.779 262.470,261.600 260.973 C 259.960 260.631,258.578 260.311,258.528 260.261 C 258.479 260.212,258.325 256.578,258.187 252.186 C 258.034 247.349,257.721 243.490,257.393 242.400 C 257.095 241.410,256.656 239.160,256.419 237.400 C 255.423 230.021,252.657 227.598,244.100 226.610 L 241.600 226.321 241.600 208.216 L 241.600 190.110 244.700 189.611 C 252.424 188.367,255.312 185.545,256.237 178.334 C 256.388 177.160,256.846 175.338,257.256 174.285 C 257.810 172.859,258.011 171.227,258.042 167.885 C 258.066 165.418,258.201 161.790,258.342 159.822 L 258.600 156.244 261.275 155.752 C 268.309 154.458,271.300 151.457,272.465 144.525 C 273.027 141.175,272.270 141.515,280.800 140.783 C 289.585 140.029,290.224 139.260,291.013 128.500 L 291.285 124.800 303.942 124.808 L 316.600 124.816 317.800 126.847 C 319.145 129.123,321.151 131.088,323.528 132.456 L 325.123 133.374 325.264 136.475 C 325.478 141.177,326.284 141.533,336.837 141.579 L 341.474 141.600 341.736 148.900 C 342.428 168.123,343.382 172.064,347.617 173.204 C 351.762 174.321,361.659 174.798,380.700 174.799 L 400.000 174.800 400.000 142.000 L 400.000 109.200 395.861 109.200 L 391.723 109.200 391.447 102.700 C 390.992 91.964,391.329 92.324,381.500 92.083 C 375.615 91.939,374.798 91.839,374.786 91.260 C 374.486 77.227,373.838 76.225,364.658 75.591 C 357.561 75.101,245.398 75.157,243.684 75.652 " stroke="none" fill="#000000" fill-rule="evenodd"></path><path id="path4" d="M0.000 208.390 L 0.000 341.600 19.900 341.577 C 42.583 341.551,53.297 341.178,55.036 340.353 C 57.994 338.949,57.787 343.240,57.912 280.720 L 58.024 224.839 113.112 224.703 C 178.179 224.543,172.877 224.983,174.066 219.647 C 175.210 214.515,174.319 188.019,172.829 182.886 C 171.763 179.213,169.450 177.466,164.762 176.794 C 163.133 176.561,160.336 176.107,158.547 175.785 C 155.810 175.293,147.584 175.200,106.647 175.200 L 58.000 175.200 58.000 162.065 C 58.000 154.841,58.119 143.501,58.265 136.865 L 58.529 124.800 115.314 124.800 C 185.824 124.800,187.077 124.724,189.306 120.324 C 191.455 116.081,192.235 81.536,190.268 77.731 C 188.995 75.270,195.349 75.429,93.300 75.299 L 0.000 75.180 0.000 208.390 M243.684 75.652 C 242.948 75.864,242.186 76.432,241.954 76.942 C 241.641 77.627,240.978 77.970,239.269 78.328 C 232.861 79.669,229.192 83.508,228.162 89.950 C 227.870 91.773,226.922 92.086,219.474 92.816 C 209.862 93.757,208.988 95.725,208.519 117.500 L 208.352 125.200 203.476 125.202 C 197.357 125.205,194.020 125.714,193.148 126.776 C 192.002 128.172,191.891 130.808,191.643 162.577 L 191.400 193.753 188.725 194.247 C 179.002 196.040,175.067 203.770,178.403 214.525 C 179.883 219.299,182.500 221.262,188.977 222.455 L 191.600 222.938 191.629 247.569 C 191.658 272.274,192.025 288.383,192.591 289.711 C 193.055 290.799,194.180 291.228,197.238 291.485 C 200.005 291.716,200.047 291.737,200.999 293.360 C 202.131 295.288,204.795 297.917,206.872 299.154 L 208.344 300.031 208.524 303.515 C 209.507 322.586,209.772 323.015,221.320 324.180 C 227.757 324.830,228.000 324.895,228.000 325.981 C 228.000 331.527,232.453 336.682,238.553 338.202 C 240.703 338.737,241.664 339.171,241.825 339.680 C 242.383 341.436,241.093 341.394,298.000 341.528 C 362.329 341.680,369.533 341.437,372.138 339.022 C 373.532 337.731,373.993 335.773,374.273 329.959 L 374.516 324.919 381.000 324.689 C 391.118 324.330,390.938 324.523,391.432 313.500 L 391.697 307.600 395.848 307.600 L 400.000 307.600 400.000 274.600 L 400.000 241.600 382.300 241.602 C 364.324 241.604,351.092 242.069,347.312 242.831 C 342.789 243.743,342.523 244.687,341.912 262.062 L 341.452 275.125 334.426 275.290 C 325.334 275.504,325.200 275.581,325.200 280.577 L 325.200 283.117 323.231 284.380 C 320.997 285.813,318.379 288.507,317.424 290.354 L 316.779 291.600 304.026 291.600 L 291.272 291.600 291.020 288.100 C 290.278 277.777,289.428 276.689,281.553 275.976 C 279.049 275.749,276.077 275.472,274.949 275.359 L 272.897 275.155 272.623 273.089 C 271.630 265.603,268.779 262.470,261.600 260.973 C 259.960 260.631,258.578 260.311,258.528 260.261 C 258.479 260.212,258.325 256.578,258.187 252.186 C 258.034 247.349,257.721 243.490,257.393 242.400 C 257.095 241.410,256.656 239.160,256.419 237.400 C 255.423 230.021,252.657 227.598,244.100 226.610 L 241.600 226.321 241.600 208.216 L 241.600 190.110 244.700 189.611 C 252.424 188.367,255.312 185.545,256.237 178.334 C 256.388 177.160,256.846 175.338,257.256 174.285 C 257.810 172.859,258.011 171.227,258.042 167.885 C 258.066 165.418,258.201 161.790,258.342 159.822 L 258.600 156.244 261.275 155.752 C 268.309 154.458,271.300 151.457,272.465 144.525 C 273.027 141.175,272.270 141.515,280.800 140.783 C 289.585 140.029,290.224 139.260,291.013 128.500 L 291.285 124.800 303.942 124.808 L 316.600 124.816 317.800 126.847 C 319.145 129.123,321.151 131.088,323.528 132.456 L 325.123 133.374 325.264 136.475 C 325.478 141.177,326.284 141.533,336.837 141.579 L 341.474 141.600 341.736 148.900 C 342.428 168.123,343.382 172.064,347.617 173.204 C 351.762 174.321,361.659 174.798,380.700 174.799 L 400.000 174.800 400.000 142.000 L 400.000 109.200 395.861 109.200 L 391.723 109.200 391.447 102.700 C 390.992 91.964,391.329 92.324,381.500 92.083 C 375.615 91.939,374.798 91.839,374.786 91.260 C 374.486 77.227,373.838 76.225,364.658 75.591 C 357.561 75.101,245.398 75.157,243.684 75.652 " stroke="none" fill="#000000" fill-rule="evenodd"></path></g></svg>